<svg xmlns="http://www.w3.org/2000/svg" xmlns:xlink="http://www.w3.org/1999/xlink" viewBox="0 0 733.13 380.84"><defs><style>.cls-1{mask:url(#mask);filter:url(#luminosity-noclip-3);}.cls-2,.cls-33,.cls-4,.cls-92{mix-blend-mode:multiply;}.cls-2{fill:url(#linear-gradient);}.cls-3{mask:url(#mask-2);filter:url(#luminosity-noclip-4);}.cls-4{fill:url(#linear-gradient-2);}.cls-5{isolation:isolate;}.cls-6{fill:url(#radial-gradient);}.cls-7{fill:url(#radial-gradient-2);}.cls-10,.cls-8,.cls-9{fill:#c0f0ff;}.cls-31,.cls-68,.cls-77,.cls-8{opacity:0.35;}.cls-30,.cls-48,.cls-57,.cls-60,.cls-9{opacity:0.5;}.cls-11{opacity:0.6;}.cls-12{fill:#76dbff;}.cls-13{fill:#e4f7ff;}.cls-14,.cls-50,.cls-52,.cls-53{fill:#fff;}.cls-14,.cls-33,.cls-93{opacity:0.1;}.cls-15{fill:#e9aa8e;}.cls-16{fill:#fad1de;}.cls-17,.cls-30{fill:#312c58;}.cls-18{fill:#716aaf;}.cls-18,.cls-92{opacity:0.44;}.cls-19{fill:#203a6f;}.cls-20{fill:#0f4c86;}.cls-21,.cls-28{fill:#d0876a;}.cls-21,.cls-40,.cls-51{opacity:0.55;}.cls-22{fill:#6f6eb2;}.cls-23{fill:#feaa32;}.cls-24,.cls-25{fill:#e68d00;}.cls-24,.cls-42,.cls-75,.cls-79{opacity:0.25;}.cls-25{opacity:0.15;}.cls-26{fill:#433a87;}.cls-27,.cls-62,.cls-72{fill:#574a9d;}.cls-29{fill:#121e3c;}.cls-31,.cls-41{fill:#0682c0;}.cls-31{fill-rule:evenodd;}.cls-32{mask:url(#mask-3);}.cls-33{fill:url(#linear-gradient-3);}.cls-34{fill:#0c4060;}.cls-35{fill:#06375b;}.cls-36{fill:#fdfdfd;}.cls-37{mask:url(#mask-4);}.cls-38{fill:url(#linear-gradient-4);}.cls-39{fill:#475f97;}.cls-40{fill:url(#linear-gradient-5);}.cls-42,.cls-44,.cls-49,.cls-51,.cls-68{fill:#175689;}.cls-43{fill:#d8f0fa;}.cls-45,.cls-72{opacity:0.2;}.cls-46,.cls-75{fill:#2b3990;}.cls-47{fill:#14527c;}.cls-49{opacity:0.89;}.cls-50{opacity:0.21;}.cls-52{opacity:0.3;}.cls-54{fill:#f9c5c7;}.cls-55,.cls-57{fill:#e5adb3;}.cls-56{fill:#e4b0b3;}.cls-58{fill:#ea9024;}.cls-59,.cls-60{fill:#d88225;}.cls-61{fill:#262262;}.cls-62{opacity:0.13;}.cls-63{fill:#ce9da4;}.cls-64{fill:#b5858e;}.cls-65{fill:#c38675;}.cls-66{fill:#302650;}.cls-67{fill:#241e3f;}.cls-69{fill:#97b5c6;}.cls-70{fill:#bfcdd6;}.cls-71{fill:#d8977d;}.cls-73{fill:#dd891b;}.cls-74{fill:#c6781a;}.cls-76{fill:url(#linear-gradient-6);}.cls-78,.cls-80,.cls-81,.cls-83,.cls-84,.cls-85{mix-blend-mode:lighten;}.cls-78{fill:url(#linear-gradient-7);}.cls-80{fill:url(#linear-gradient-8);}.cls-81{fill:url(#linear-gradient-9);}.cls-82{fill:url(#linear-gradient-10);}.cls-83{fill:url(#linear-gradient-11);}.cls-84{fill:url(#linear-gradient-12);}.cls-85{fill:url(#linear-gradient-13);}.cls-86,.cls-88{fill:#f19b17;}.cls-86{opacity:0.67;}.cls-87{fill:#f29c17;}.cls-89{fill:#ffbe4c;}.cls-90{fill:#0b8cc8;}.cls-91,.cls-92{fill:#43b5d5;}.cls-93{fill:#006697;}.cls-94{fill:#0782be;opacity:0.49;}.cls-95{fill:#8adaed;}.cls-96{fill:#75c1ea;}.cls-97{filter:url(#luminosity-noclip-2);}.cls-98{filter:url(#luminosity-noclip);}</style><filter id="luminosity-noclip" x="247.41" y="-11713.95" width="404.58" height="32766" filterUnits="userSpaceOnUse" color-interpolation-filters="sRGB"><feFlood flood-color="#fff" result="bg"/><feBlend in="SourceGraphic" in2="bg"/></filter><mask id="mask" x="247.41" y="-11713.95" width="404.58" height="32766" maskUnits="userSpaceOnUse"><g class="cls-98"/></mask><linearGradient id="linear-gradient" x1="-44.75" y1="387.98" x2="351.75" y2="340.68" gradientTransform="matrix(-1, 0, -0.06, 1, 618.86, 0)" gradientUnits="userSpaceOnUse"><stop offset="0" stop-color="#fff"/><stop offset="0.37" stop-color="#fdfdfd"/><stop offset="0.51" stop-color="#f6f6f6"/><stop offset="0.6" stop-color="#ebebeb"/><stop offset="0.68" stop-color="#dadada"/><stop offset="0.75" stop-color="#c4c4c4"/><stop offset="0.8" stop-color="#a8a8a8"/><stop offset="0.86" stop-color="#888"/><stop offset="0.91" stop-color="#626262"/><stop offset="0.95" stop-color="#373737"/><stop offset="0.99" stop-color="#090909"/><stop offset="1"/></linearGradient><filter id="luminosity-noclip-2" x="300.02" y="-11713.95" width="241.11" height="32766" filterUnits="userSpaceOnUse" color-interpolation-filters="sRGB"><feFlood flood-color="#fff" result="bg"/><feBlend in="SourceGraphic" in2="bg"/></filter><mask id="mask-2" x="300.02" y="-11713.95" width="241.11" height="32766" maskUnits="userSpaceOnUse"><g class="cls-97"/></mask><linearGradient id="linear-gradient-2" x1="-20.69" y1="89.32" x2="373.96" y2="442.08" gradientTransform="matrix(-1, 0, -0.06, 1, 618.86, 0)" gradientUnits="userSpaceOnUse"><stop offset="0" stop-color="#ebebeb"/><stop offset="0.1" stop-color="#e2e2e2"/><stop offset="0.28" stop-color="#c8c8c8"/><stop offset="0.5" stop-color="#9f9f9f"/><stop offset="0.65" stop-color="gray"/></linearGradient><radialGradient id="radial-gradient" cx="2960.22" cy="-1528.13" r="452.02" gradientTransform="matrix(-0.45, 0, 0, 0.69, 1515.17, 1385.59)" gradientUnits="userSpaceOnUse"><stop offset="0" stop-color="#6469d4"/><stop offset="1" stop-color="#d4f3fb" stop-opacity="0"/></radialGradient><radialGradient id="radial-gradient-2" cx="1765.27" cy="-1528.13" r="452.02" xlink:href="#radial-gradient"/><filter id="luminosity-noclip-3" x="247.41" y="349.54" width="404.58" height="31.29" filterUnits="userSpaceOnUse" color-interpolation-filters="sRGB"><feFlood flood-color="#fff" result="bg"/><feBlend in="SourceGraphic" in2="bg"/></filter><mask id="mask-3" x="247.41" y="349.54" width="404.58" height="31.29" maskUnits="userSpaceOnUse"><g class="cls-1"><path class="cls-2" d="M247.42,365.18c-1,8.65,88.83,15.66,200.6,15.66s203.09-7,204-15.66S563,349.54,451.38,349.54,248.4,356.54,247.42,365.18Z"/></g></mask><linearGradient id="linear-gradient-3" x1="-8.22" y1="384.84" x2="351.33" y2="341.95" gradientTransform="matrix(-1, 0, -0.06, 1, 618.86, 0)" gradientUnits="userSpaceOnUse"><stop offset="0"/><stop offset="0.37" stop-color="#020202"/><stop offset="0.51" stop-color="#090909"/><stop offset="0.6" stop-color="#141414"/><stop offset="0.68" stop-color="#252525"/><stop offset="0.75" stop-color="#3b3b3b"/><stop offset="0.8" stop-color="#575757"/><stop offset="0.86" stop-color="#777"/><stop offset="0.91" stop-color="#9d9d9d"/><stop offset="0.95" stop-color="#c8c8c8"/><stop offset="0.99" stop-color="#f6f6f6"/><stop offset="1" stop-color="#fff"/></linearGradient><filter id="luminosity-noclip-4" x="300.02" y="193.07" width="241.11" height="153.76" filterUnits="userSpaceOnUse" color-interpolation-filters="sRGB"><feFlood flood-color="#fff" result="bg"/><feBlend in="SourceGraphic" in2="bg"/></filter><mask id="mask-4" x="300.02" y="193.07" width="241.11" height="153.76" maskUnits="userSpaceOnUse"><g class="cls-3"><path class="cls-4" d="M537.56,346.83a3.41,3.41,0,0,0,2.55-1.28,4.23,4.23,0,0,0,1-2.9l-6.74-146.73a2.78,2.78,0,0,0-2.71-2.85H303.6a3.42,3.42,0,0,0-2.55,1.26,4.24,4.24,0,0,0-1,2.88L305.64,344a2.78,2.78,0,0,0,2.7,2.88Z"/></g></mask><linearGradient id="linear-gradient-4" x1="-11.08" y1="87.64" x2="366.49" y2="425.13" gradientTransform="matrix(-1, 0, -0.06, 1, 618.86, 0)" gradientUnits="userSpaceOnUse"><stop offset="0" stop-color="#fff"/><stop offset="0.06" stop-color="#f6f7fc"/><stop offset="0.17" stop-color="#dce3f4"/><stop offset="0.31" stop-color="#b3c1e7"/><stop offset="0.46" stop-color="#7993d5"/><stop offset="0.64" stop-color="#3158be"/><stop offset="0.65" stop-color="#2f57bd"/></linearGradient><linearGradient id="linear-gradient-5" x1="348.23" y1="318.77" x2="778.11" y2="416.51" gradientTransform="matrix(1, 0, 0.03, 1, -44.26, 0)" xlink:href="#linear-gradient-4"/><linearGradient id="linear-gradient-6" x1="3978.65" y1="6313.84" x2="3941.94" y2="6333.63" gradientTransform="matrix(-0.04, -1, 1, -0.04, -5772.79, 4503.88)" gradientUnits="userSpaceOnUse"><stop offset="0" stop-color="#fcdb46"/><stop offset="1" stop-color="#ff7655"/></linearGradient><linearGradient id="linear-gradient-7" x1="3953.42" y1="6321.73" x2="3970.41" y2="6321.73" gradientTransform="matrix(-0.04, -1, 1, -0.04, -5772.79, 4503.88)" gradientUnits="userSpaceOnUse"><stop offset="0.01" stop-color="#fff"/><stop offset="1" stop-color="#c49a6c"/></linearGradient><linearGradient id="linear-gradient-8" x1="3973.17" y1="6309.91" x2="3975.02" y2="6309.91" xlink:href="#linear-gradient-7"/><linearGradient id="linear-gradient-9" x1="3975.65" y1="6315.25" x2="3978.82" y2="6315.25" xlink:href="#linear-gradient-7"/><linearGradient id="linear-gradient-10" x1="3625.91" y1="4992.19" x2="3589.2" y2="5011.98" gradientTransform="matrix(-0.55, -0.84, -0.84, 0.55, 6526.93, 580.54)" xlink:href="#linear-gradient-6"/><linearGradient id="linear-gradient-11" x1="3600.68" y1="5000.09" x2="3617.67" y2="5000.09" gradientTransform="matrix(-0.55, -0.84, -0.84, 0.55, 6526.93, 580.54)" xlink:href="#linear-gradient-7"/><linearGradient id="linear-gradient-12" x1="3620.43" y1="4988.27" x2="3622.28" y2="4988.27" gradientTransform="matrix(-0.55, -0.84, -0.84, 0.55, 6526.93, 580.54)" xlink:href="#linear-gradient-7"/><linearGradient id="linear-gradient-13" x1="3622.91" y1="4993.6" x2="3626.08" y2="4993.6" gradientTransform="matrix(-0.55, -0.84, -0.84, 0.55, 6526.93, 580.54)" xlink:href="#linear-gradient-7"/></defs><g class="cls-5"><g id="Layer_2" data-name="Layer 2"><g id="Layer_1-2" data-name="Layer 1"><path class="cls-6" d="M0,366.1c0,3.77,43.26,6.82,96.62,6.82s96.63-3.05,96.63-6.82-43.26-6.82-96.63-6.82S0,362.33,0,366.1Z"/><path class="cls-7" d="M539.88,366.1c0,3.77,43.26,6.82,96.63,6.82s96.62-3.05,96.62-6.82-43.26-6.82-96.62-6.82S539.88,362.33,539.88,366.1Z"/><polygon class="cls-8" points="113.97 0 97.5 41.49 141.67 35.01 113.97 0"/><polygon class="cls-9" points="638.63 90.98 665.48 126.64 682.93 85.56 638.63 90.98"/><polygon class="cls-8" points="144.82 192.57 167.88 216.77 177.31 184.7 144.82 192.57"/><path class="cls-10" d="M486.81,168.9c3.05-1.5,6.44-2.34,9.29-4.17a5.8,5.8,0,0,0,2.48-2.68c.88-2.41-.84-5-1.82-7.49-3-7.55.89-15.62,4.7-22.45,1.06-1.89,2.31-3.94,4.39-4.52,3-.84,6,1.79,8.36,4.08s5.71,4.63,8.49,3.18,2.71-5.56,1.39-8.54c-1.5-3.36-4.08-6.18-5.59-9.54s-1.62-7.87,1.24-9.91c3.4-2.42,8.17.13,11.84,2.49s8.82,4.47,11.73,1.47c1.66-1.7,1.79-4.51,1-6.86a24.75,24.75,0,0,0-3.84-6.37,6.17,6.17,0,0,1-1.6-3.68,4.7,4.7,0,0,1,1.72-3.09c4.95-4.65,13.56-4.65,19,0s6.85,13.34,3.21,19.12c-1.38,2.19-3.4,5-1.74,7.11,2.19,2.81,6.3-.52,9.74-.19,2.89.27,5,3.44,5,6.37s-1.58,5.55-3.42,7.71c-3.55,4.16-8.17,7.19-12.46,10.57a4.55,4.55,0,0,0-1.67,2c-.46,1.41.44,3,1.52,4.05,2.44,2.44,5.8,3.56,8.83,5.12s6.1,4,6.58,7.42c.52,3.64-2.24,6.84-5.38,8.47s-6.76,2.22-10,3.74a4.23,4.23,0,0,0-2.28,2c-.6,1.51.39,3.22,1.33,4.62l15.2,22.62a5.31,5.31,0,0,1,1.27,3.43,4,4,0,0,1-.69,1.62c-3.38,5.26-10.18,7.31-16.51,6.89-5.41-.36-10.64-2.21-15.84-4.07a5.6,5.6,0,0,0-3.19-2.89c-14.85-5.81-30.69-8.1-45.82-12.95-2.67-2.3-5.45-4.5-8-7-2.78-2.77-5.36-6.41-4.87-10.21C480.89,172.91,483.77,170.41,486.81,168.9Z"/><g class="cls-11"><path class="cls-12" d="M526.6,198.8c-1,.87-2,1.81-2.9,2.78-3.73-1-7.48-1.92-11.23-2.84,2.36-5.85,4.6-11.75,6.67-17.7a14.41,14.41,0,0,0,1.18-6.59c-.28-2.09-1.43-4-1.84-6-.66-3.38.79-6.85,2.73-9.7s4.41-5.34,6.2-8.29a51.42,51.42,0,0,0,3.34-7.27c3.49-8.54,7.8-16.72,12.1-24.89a2.1,2.1,0,0,1,1-1.13,1.87,1.87,0,0,1,1.39.26c3.69,1.88,5.73,6.09,6,10.22s-.84,8.21-2.15,12.13-2.78,7.85-3.15,12c-.54,6.05,1.34,12.19.23,18.16-.71,3.87-2.65,7.47-3,11.39a15.63,15.63,0,0,1-.43,3.75,8.5,8.5,0,0,1-2.1,3.08C536.6,192.33,531.09,194.94,526.6,198.8Z"/></g><path class="cls-13" d="M532.91,194.63c-2.8.85-6.23,1.24-9.17,1.85-.85,1.49-1.74,3-2.66,4.41l-1.29-.34a130.37,130.37,0,0,0,11.8-23.08c-1.81-2-4-4.08-5.57-6.1-5.78-7.29-8.39-12.4-11.8-19.05l.07,0a98.69,98.69,0,0,0,12.31,18,64,64,0,0,0,5.64,5.52c1.13-2.89,2.18-5.8,3.18-8.73h0a.31.31,0,0,1,.05-.11c.58-1.72,1.15-3.46,1.7-5.19.64-2.08,1.25-4.16,1.85-6.26a31.57,31.57,0,0,1-2.23-2.46,61.43,61.43,0,0,1-5.18-8.35l0,0c1.54,2.89,3.51,5,5.49,7.62.65.85,1.39,1.62,2.12,2.41a271.66,271.66,0,0,0,7.47-35.27l.16,0c-.86,6.79-2,13.55-3.38,20.25,1-.53,2.08-1,3.06-1.64,2.76-1.76,5.35-3.07,7.8-5.25l0,0a60.64,60.64,0,0,1-7.76,6c-1,.63-2.24,1.15-3.3,1.71Q541,151.41,537.93,162c-.35,1.13-.7,2.26-1.06,3.38,2.15-.44,4.32-.79,6.43-1.4,6-1.8,11.51-2.85,17.18-5.59l0,.06a115.78,115.78,0,0,1-17.43,6.67c-2,.61-4.54,1.32-6.7,1.74a162.08,162.08,0,0,1-11.52,27.59c3.48-.47,5.86-.48,8.64-1.29,7.76-2.31,14.63-4.22,21.94-7.75l0,.08A153.4,153.4,0,0,1,532.91,194.63Z"/><path class="cls-14" d="M547.66,90.88s14.82-1.06,14.42,14.74c0,0-2.32-10-11-12.29S547.66,90.88,547.66,90.88Z"/><path class="cls-14" d="M566.87,120.56s7,5.42,0,10.95C566.9,131.51,580.09,119.08,566.87,120.56Z"/><path class="cls-14" d="M527.18,110.12s-8.72,1.3-5.41,9.52C521.77,119.64,516.41,102.33,527.18,110.12Z"/><path class="cls-14" d="M565.61,154.6s7.86,3.27,5.72,7.5S560,168.51,560,168.51s7.84-3.41,7.64-7.22S562.13,160,565.61,154.6Z"/><path class="cls-14" d="M513,131.88s-7.2-4.54-9.42-.36,1.32,13,1.32,13-1.74-8.37,1.49-10.41S510.6,137.84,513,131.88Z"/><path class="cls-14" d="M492.41,173.06s-8.25-2.08-9.06,2.59,5.28,11.94,5.28,11.94-4.25-7.42-1.82-10.37S492,179.48,492.41,173.06Z"/><path class="cls-14" d="M560.51,187.63c.6-.43,11,14.18,11,14.18s-.25,10-13.73,7.33c0,0,9.88-1.16,10.35-6.85C568.11,202.29,552.05,193.79,560.51,187.63Z"/><path class="cls-10" d="M569.46,188s10.27-5.72,10.56-11.83,1.47-7.91,1.47-7.91-7.79,1-11.1,6.09-1,13.12-1,13.12A20.26,20.26,0,0,1,574,176.88,92,92,0,0,1,569.46,188Z"/><path class="cls-10" d="M579.6,146s-1.63-5.64-4.57-6.47-3.68-1.61-3.68-1.61-.41,3.9,1.71,6.09,6.27,2,6.27,2a10.15,10.15,0,0,1-4.64-3.46A46,46,0,0,1,579.6,146Z"/><path class="cls-10" d="M575.36,113.33s-5-8.82-2.45-13.44,2.47-6.48,2.47-6.48,5.3,4.2,5.43,9.46S575.69,113,575.69,113a17.52,17.52,0,0,0,1.34-9.9A80.33,80.33,0,0,0,575.36,113.33Z"/><path class="cls-10" d="M347.1,215c-3.38-.3-6.84.15-10.17-.53a5.71,5.71,0,0,1-3.27-1.61c-1.7-1.92-1.05-5-1-7.64.09-8.13-6.47-14.24-12.5-19.23-1.67-1.38-3.57-2.84-5.73-2.62-3.13.31-4.94,3.83-6.31,6.82s-3.65,6.38-6.77,6-4.54-4.21-4.38-7.46c.18-3.68,1.56-7.24,1.76-10.92s-1.33-7.92-4.74-8.79c-4-1-7.57,3.07-10.13,6.61s-6.61,7.34-10.41,5.61c-2.16-1-3.3-3.56-3.41-6a24.68,24.68,0,0,1,1.29-7.33,6.19,6.19,0,0,0,.15-4,4.69,4.69,0,0,0-2.72-2.25c-6.3-2.55-14.32.57-17.67,6.85s-1.57,14.92,3.91,19c2.09,1.55,5,3.41,4.2,6-1,3.41-6.07,1.79-9.15,3.34-2.6,1.3-3.42,5-2.37,7.76s3.47,4.59,6,5.94c4.81,2.6,10.22,3.76,15.43,5.36a4.48,4.48,0,0,1,2.27,1.23c.94,1.15.67,2.93.05,4.33-1.39,3.15-4.12,5.41-6.38,8s-4.23,6-3.45,9.3c.83,3.58,4.55,5.57,8.07,5.95s7.11-.37,10.64-.11a4.17,4.17,0,0,1,2.86,1c1.1,1.19.8,3.14.43,4.79l-6,26.58a5.4,5.4,0,0,0,.05,3.66,4.11,4.11,0,0,0,1.23,1.26c5.06,3.68,12.14,3.14,17.89.46,4.92-2.29,9.13-5.92,13.29-9.53A5.59,5.59,0,0,1,312,269c11.74-10.79,25.68-18.65,38-28.64,1.65-3.11,3.46-6.17,4.89-9.39,1.59-3.59,2.68-7.92.85-11.28C354.08,216.61,350.48,215.32,347.1,215Z"/><g class="cls-11"><path class="cls-12" d="M320.82,257.27c1.25.45,2.48,1,3.7,1.54,3.11-2.28,6.28-4.49,9.45-6.7q-6.48-6.9-12.62-14.09c-1.47-1.72-3-3.53-3.49-5.73-.49-2-.09-4.21-.46-6.28-.61-3.39-3.21-6.1-6-8.06s-6-3.38-8.78-5.49a52,52,0,0,1-5.74-5.57c-6.34-6.7-13.31-12.77-20.28-18.82a2.07,2.07,0,0,0-1.38-.69,1.92,1.92,0,0,0-1.21.75c-2.75,3.08-3.13,7.75-1.93,11.71s3.76,7.35,6.39,10.54,5.43,6.31,7.27,10c2.69,5.44,3.16,11.85,6.35,17,2.06,3.35,5.17,6,6.88,9.55a15.87,15.87,0,0,0,1.76,3.34,8.44,8.44,0,0,0,3.07,2.11C309.15,254.85,315.24,255.29,320.82,257.27Z"/></g><path class="cls-13" d="M313.42,255.66c2.92-.22,6.26-1.09,9.22-1.59q2,1.62,4.07,3.15l1.09-.78a130.82,130.82,0,0,1-19.35-17.25c1-2.5,2.22-5.24,3-7.71,2.77-8.88,3.35-14.59,4.12-22h-.08a98.28,98.28,0,0,1-5,21.24,64.11,64.11,0,0,1-3.27,7.18q-3.14-3.42-6.11-7h0l-.08-.08q-1.76-2.1-3.46-4.23c-1.35-1.7-2.68-3.43-4-5.16a32.2,32.2,0,0,0,1.19-3.1,61.24,61.24,0,0,0,1.81-9.67h0c-.39,3.25-1.46,5.94-2.36,9.09-.3,1-.71,2-1.1,3a270.55,270.55,0,0,1-19.72-30.18l-.14.08c3.25,6,6.76,11.9,10.47,17.65-1.15-.12-2.31-.2-3.45-.42-3.21-.64-6.1-.92-9.17-2.07v0a61.87,61.87,0,0,0,9.42,2.83c1.14.23,2.5.26,3.7.4q6,9.24,12.75,18l2.22,2.77c-2.17.37-4.32.83-6.51,1-6.27.5-11.76,1.51-18,1v.07a116.27,116.27,0,0,0,18.66-.08c2.1-.16,4.71-.41,6.87-.8a163.06,163.06,0,0,0,20.72,21.56c-3.41.81-5.64,1.67-8.52,1.92-8.07.65-15.17,1.36-23.26.71v.09A153.46,153.46,0,0,0,313.42,255.66Z"/><path class="cls-14" d="M262.16,164.27s-14.19,4.36-8.11,18.95c0,0-1.46-10.18,5.77-15.42S262.16,164.27,262.16,164.27Z"/><path class="cls-14" d="M255,198.88s-4.52,7.57,3.94,10.22C258.92,209.1,242.13,202.28,255,198.88Z"/><path class="cls-14" d="M288.21,174.8s8.6-2,8.49,6.92C296.7,181.72,295.44,163.64,288.21,174.8Z"/><path class="cls-14" d="M268.47,230.17s-6.15,5.88-2.63,9.05,12.92,1.87,12.92,1.87-8.55-.34-9.75-4S273.66,234,268.47,230.17Z"/><path class="cls-14" d="M309.29,190s5.07-6.84,8.65-3.75,3.47,12.59,3.47,12.59-1.41-8.44-5.15-9.17S313.7,194.65,309.29,190Z"/><path class="cls-14" d="M343.38,220.92s6.95-4.93,9.39-.87-.61,13-.61,13,1.28-8.46-2.05-10.32S346.12,226.74,343.38,220.92Z"/><path class="cls-14" d="M285.16,259.12c-.71-.19-5.11,17.18-5.11,17.18s3.85,9.26,15.45,1.88c0,0-9.63,2.49-12.13-2.65C283.37,275.53,295.27,261.8,285.16,259.12Z"/><path class="cls-10" d="M277,262.72s-11.65-1.63-14.12-7.22-4.24-6.84-4.24-6.84,7.61-1.92,12.55,1.66,5.73,11.86,5.73,11.86A20.33,20.33,0,0,0,268.7,254,93.06,93.06,0,0,0,277,262.72Z"/><path class="cls-10" d="M252.32,227.22s-.52-5.85,1.92-7.68,2.85-2.83,2.85-2.83,1.79,3.48.61,6.29-5.13,4.12-5.13,4.12a10.1,10.1,0,0,0,3.08-4.9A46.14,46.14,0,0,0,252.32,227.22Z"/><path class="cls-10" d="M244.45,195.21s1.46-10-2.57-13.42-4.64-5.15-4.64-5.15-3.43,5.84-1.65,10.79S244,195,244,195a17.51,17.51,0,0,1-4.83-8.74A79.28,79.28,0,0,1,244.45,195.21Z"/><polygon class="cls-15" points="683.88 362.4 683.11 365.87 685.48 366.36 686.61 362.76 683.88 362.4"/><path class="cls-16" d="M683.45,364.32a4.62,4.62,0,0,0-.26,1.61l2.22.42s.82-1.44.55-1.55C684.88,364.36,683.93,364,683.45,364.32Z"/><path class="cls-17" d="M685.4,368.4c-.61.42-7.71,0-8.21-.85a.66.66,0,0,1,.37-1.07l.16,0c.67-.06,3.25-.34,4.17-1,1.07-.74,1.55-1.18,1.53-.64s1.12,1.66,2,1.07c.51-.34.63.42.51,1.2h0A2,2,0,0,1,685.4,368.4Z"/><path class="cls-18" d="M685.93,367.1c0-.36-.18-1-.44-.63s-2-.1-2.76-.27a20.81,20.81,0,0,0-4,.5,3,3,0,0,1-1-.24c.67-.06,3.25-.34,4.17-1,1.07-.74,1.55-1.18,1.53-.64s1.12,1.66,2,1.07C685.93,365.56,686.05,366.32,685.93,367.1Z"/><polygon class="cls-15" points="715.11 358.21 716.99 361.22 719.03 359.91 717.32 356.56 715.11 358.21"/><path class="cls-16" d="M716.15,359.87a4.69,4.69,0,0,0,.94,1.34L719,360s-.42-1.61-.69-1.5C717.2,358.91,716.28,359.32,716.15,359.87Z"/><path class="cls-17" d="M720.4,361.43c-.14.73-5.52,5.38-6.46,5.13a.66.66,0,0,1-.49-1l.11-.12c.43-.51,2.07-2.51,2.28-3.62.25-1.28.28-1.93.65-1.53s2,.4,2.17-.63c.13-.6.75-.14,1.21.5h0A2.11,2.11,0,0,1,720.4,361.43Z"/><path class="cls-18" d="M719.87,360.13c-.29-.22-.83-.59-.76-.15.1.6-1.52,1.37-2.16,1.74a20.83,20.83,0,0,0-2.51,3.16,2.73,2.73,0,0,1-.88.53c.43-.51,2.07-2.51,2.28-3.62.25-1.28.28-1.93.65-1.53s2,.4,2.17-.63C718.79,359,719.41,359.49,719.87,360.13Z"/><path class="cls-19" d="M693.69,307.8l-10.61,55.25,3.65.66s18.68-44.08,18.95-52.71S693.69,307.8,693.69,307.8Z"/><path class="cls-20" d="M713.43,308.14s4.62,5-1.06,18.8c-2.16,5.21-1.08,11-1.88,13.72,3.66,5.53,7.92,16.68,7.92,16.68l-3,2.18s-8.87-4.66-12.88-18.55S697,307.13,697,307.13Z"/><path class="cls-15" d="M696.1,284.44s-.62,3-1.53,6.68c-1,3.89-2.29,8.46-3.52,10.7-2.34,4.27-7.39,9.78-7.59,10h0l-.77-.34s6.12-14.82,7.54-16.92c.92-1.38,1.54-5.31,1.86-7.89h0l0-.08c.16-1.34.24-2.3.24-2.3Z"/><path class="cls-21" d="M694.57,291.12c-1,3.89-2.29,8.46-3.52,10.7-2.34,4.27-7.39,9.78-7.59,10a35.91,35.91,0,0,1,3.46-5.18c1.83-2.16,4.66-9.44,4.84-11.92s1.86-6,1.07-6.68a2,2,0,0,1-.75-1.36h0v-.08h0l2.71-.21S694.75,288.55,694.57,291.12Z"/><path class="cls-22" d="M714.77,314.4c-.88,1-3.76,1.72-7.55,1.49h0a29,29,0,0,1-11.82-3.44c-8.67-4.69,1-36.62,2.39-39s8.45-3.76,11.9-3.62c0,0,7.37-.17,9.87,4.14.83,1.43.77,6.13.26,11.84C718.78,297.34,715.9,313.09,714.77,314.4Z"/><path class="cls-23" d="M691,306.94c.42,5.91,4,7,5.7,7.29l5.22,1.34a11,11,0,0,0,3.62.87c2.91.29,6.54,0,8.63-1,3.57-1.79,4.75-20.39,4.75-20.39a1.81,1.81,0,0,1-2.75.42,10.23,10.23,0,0,1-3.83-7.81c.19-2.8.95-12.24,1.66-14.37a3.52,3.52,0,0,1,2.06-2.48l-1.88-.65s-1.06.19-1.83,3.29c-.45,1.82-.45,3.56-1.22,5.43a8.68,8.68,0,0,1-.84,1.58,3.51,3.51,0,0,1-6.48-1.31,10.24,10.24,0,0,1-.19-3.6c.64-3.47,1.81-4.75,1.27-5.73a.23.23,0,0,0-.12-.12c-.27-.18-.87-.16-1.3.5s-2.06,10.64-4,15.79-6.5,4.81-7.07,5.74S690.46,299.7,691,306.94Z"/><path class="cls-24" d="M702.76,277.85a5.54,5.54,0,0,0,4.2,6.35c2.68.53,4.25-5.21,4.25-5.21l-.09-.14a8.68,8.68,0,0,1-.84,1.58,3.51,3.51,0,0,1-6.48-1.31,10.24,10.24,0,0,1-.19-3.6c.64-3.47,1.81-4.75,1.27-5.73a.23.23,0,0,0-.12-.12.9.9,0,0,0,0,.39C704.83,270.81,703.14,274.64,702.76,277.85Z"/><path class="cls-25" d="M705.53,316.44c2.91.29,6.54,0,8.63-1,3.57-1.79,4.75-20.39,4.75-20.39a1.81,1.81,0,0,1-2.75.42l0,0s2.67,2.4-.16,7.47C713.68,307.05,704.46,312.64,705.53,316.44Z"/><path class="cls-15" d="M707.12,269.68l.84-2.52,2.61.24.38,2.7s-1.47,2.94-2.44,2.81S707.08,269.92,707.12,269.68Z"/><path class="cls-22" d="M699.55,272.39s-8,6.08-8.71,13.69c0,0,3.39,2,4.44.55S699.55,272.39,699.55,272.39Z"/><polygon class="cls-26" points="708.01 270.58 708.38 273.09 706.61 270.79 708.01 270.58"/><path class="cls-27" d="M704.94,272.11l3.14-1.54-.69-1.7-1.7.64A3.07,3.07,0,0,1,704.94,272.11Z"/><polygon class="cls-26" points="709.89 270.82 708.59 273.12 710.88 271.46 709.89 270.82"/><path class="cls-27" d="M712.36,273.15l-2.59-2.34,1.09-1.64,1.53.79A4.38,4.38,0,0,0,712.36,273.15Z"/><path class="cls-15" d="M683.45,311.82s.54,1,.26,1.65-1.41,2.25-2,1-.87-2.85.94-3Z"/><path class="cls-28" d="M681.85,312.47s.68.06.93-.36C682.78,312.11,682.75,313,681.85,312.47Z"/><path class="cls-28" d="M681.54,312.79s1.35-.2,1.49,0,.38,1.26-.16,1.62c0,0,.33-1,0-1.46Z"/><path class="cls-27" d="M693.78,287.15s1.28-5.66,2.56-7.66c0,0-2.49,4.64-2.9,7.62Z"/><path class="cls-21" d="M707.7,268s.78,1.79,1.49,1.29a3,3,0,0,1,1.56-.5l-.15-1.13Z"/><path class="cls-29" d="M706.37,264.08s-4.24-3.78,0-7.06c2.94-2.27,8.73,3.13,7.76,5.79s-1.84,2.74-1.84,2.74Z"/><path class="cls-15" d="M713.1,263.47c-.41.9-1.19,4.71-4,5s-2.66-4.93-2.58-5.27a1.23,1.23,0,0,1,.09-.29c.6-1.47,2.76-.66,4.35-.39l.17,0c1.7.24,1.76-.67,1.76-.67s.44-.36.82.43S713.1,263.47,713.1,263.47Z"/><path class="cls-21" d="M711.4,264.56a9.12,9.12,0,0,0-2.18-1.73,3.14,3.14,0,0,0-2.42.09h-.18c.6-1.47,2.76-.66,4.35-.39C711.08,263.16,711.4,264.56,711.4,264.56Z"/><path class="cls-29" d="M710.72,261.58s.61,3.94.92,3,1-3.22,1-3.22Z"/><path class="cls-28" d="M713.18,262.1s.44.42.27.65l-.37.51a1.5,1.5,0,0,0,.23-.59C713.3,262.45,713,262.2,713.18,262.1Z"/><path class="cls-30" d="M705.83,262.55s1.11-2.11,5.07-.62C710.9,261.93,706.82,258.46,705.83,262.55Z"/><path class="cls-31" d="M272.06,51V65.41h2.08V84h18.58V65.41h23v-.12h6.85L310.42,254.85h-5v16.42H384V254.85h-4.41L367.44,65.29h21.77v.12h78.13v53.34h-3v3.39h3.14l.69,6.78.5.26c1,.5,3.87,2.34,3.93,4.17,0,1-.81,2-2.49,3.05-2.63,1.57-3.37,1.16-3.49,1-.73-.6-.32-3.56.48-5.83l-1.95-.71c-.36,1-2.09,6.3.16,8.14a2.75,2.75,0,0,0,1.78.59,8.79,8.79,0,0,0,4.08-1.48c2.39-1.43,3.56-3.07,3.49-4.89-.1-2.84-3.24-4.91-4.55-5.67l-.55-5.46h4v-3.39h-4.11V65.41h2.07V50.46L415.7,39.56,352.92,27.29,339,24.58,335.78,24l-.69.28L301.25,38.58Zm66.28-14.53-3.25.69-29,6.16,28.88-12.23.17.29Zm6.45,103.48-16.66-25.48L344.79,91l16.65,23.39Zm0,4.85L364.38,175l-19.59,33.41L325.2,175Zm-17-34,2.57-40,13,18.28Zm2.69-64.95,4.64,2L339,49.38l13.89,5.83,7.25,3H330.45Zm29,20.79L344.79,87,330.56,67.18l.12-1.89h28.68Zm2.88,44.88L346.22,89l13.45-18.89Zm3.88,60.4-.25.43-19.58-30,16.32-25.18Zm.33,5.15,4.94,76.87-24.91-42.49Zm1.74,77.84h-47l23.49-40.41ZM318.63,253l4.83-75.24L343,211.39Zm5.2-81,3.48-54.16,15.9,24.52ZM339,42.62l4.47-.94,15.11,2,1,11.21L352.92,53,339,47.14l-3.94-1.64-3.23-1.36,3.23-.69Zm50.48-1.86-36.59-4.24-7.74-.89-2.57-4,10.31,2Zm-22.57,17.8-.8-14.27,99.13,11.48V59.2Zm4.59,196.29ZM278.26,55.51l23-4.88,23-4.87v12.5h-1v.94h-45Z"/><g class="cls-32"><path class="cls-33" d="M247.42,365.18c-1,8.65,88.83,15.66,200.6,15.66s165.52-7.7,166.39-16.34-51.37-15-163-15S248.4,356.54,247.42,365.18Z"/></g><path class="cls-34" d="M333.5,359.06l-28.39-12.65-.38.44s30.85,20,33.37,19.73C338.22,366.57,333.5,359.06,333.5,359.06Z"/><path class="cls-35" d="M549.9,331.14A16.16,16.16,0,0,1,546,342.25a13.07,13.07,0,0,1-9.76,4.89H306.9c-5.73,0-10.07-4.64-10.31-11L291.17,199a16.09,16.09,0,0,1,3.95-11,13.1,13.1,0,0,1,9.74-4.83h228a9.94,9.94,0,0,1,8.67,5,12.87,12.87,0,0,1,1.68,5.87l6.17,126.65Z"/><path class="cls-36" d="M304,189.78H532.08c2.9,0,5.1,2.33,5.25,5.53L543.58,323c.19,4.22-3.13,8.12-6.92,8.12H307.41c-2.91,0-5.11-2.35-5.24-5.59l-5.1-127.72C296.91,193.64,300.25,189.78,304,189.78Z"/><g class="cls-37"><path class="cls-38" d="M537.06,327.8a3.4,3.4,0,0,0,2.55-1.27,4.23,4.23,0,0,0,1-2.91l-6.23-127.7a2.78,2.78,0,0,0-2.71-2.85H303.6a3.42,3.42,0,0,0-2.55,1.26,4.24,4.24,0,0,0-1,2.88l5.11,127.72a2.78,2.78,0,0,0,2.7,2.87Z"/></g><path class="cls-35" d="M336.35,366.78l280.37-.69a4.73,4.73,0,0,0,4.33-4.33l.39-3.38-287.94.68-.42,3.38C332.77,364.83,334.24,366.78,336.35,366.78Z"/><polygon class="cls-39" points="621.44 358.38 541.04 346.41 305.11 346.41 333.46 359.09 621.44 358.38"/><polygon class="cls-40" points="586.5 355.13 529.07 349.67 340.01 349.67 363.24 355.82 586.5 355.13"/><path class="cls-41" d="M699.93,183.28,512.7,156.15a12.06,12.06,0,0,0-13.84,9.9L481.5,283,693,313.65,710.31,196.7A12,12,0,0,0,699.93,183.28Z"/><path class="cls-42" d="M549.39,320.75l-75.61-11a12,12,0,0,1-10.39-13.41l26.45-113.11,17.06-.06,34.64,5a12.87,12.87,0,0,1,1.68,5.87Z"/><path class="cls-43" d="M497.86,172.77l-17.35,117a12,12,0,0,0,10.38,13.42l187.23,27.13A12.07,12.07,0,0,0,692,320.36l17.36-117Z"/><path class="cls-43" d="M523.56,168.07a3.18,3.18,0,0,1-3.64,2.6,3.14,3.14,0,0,1-2.73-3.52,3.17,3.17,0,0,1,3.64-2.6A3.14,3.14,0,0,1,523.56,168.07Z"/><path class="cls-43" d="M531.39,169.2a3.22,3.22,0,1,1-2.73-3.52A3.17,3.17,0,0,1,531.39,169.2Z"/><path class="cls-23" d="M539.22,170.34a3.22,3.22,0,1,1-2.73-3.52A3.17,3.17,0,0,1,539.22,170.34Z"/><path class="cls-44" d="M570.19,245l1.27-8.54-6.86-1.62a23.31,23.31,0,0,0-2.32-8.69l5.24-4.53-5.37-6.94-6,3.53a25.16,25.16,0,0,0-8-4.63l.35-6.78-8.87-1.29-1.63,6.6a25.51,25.51,0,0,0-9,2.17l-4.73-5.09-7.17,5.13,3.71,5.82a23.43,23.43,0,0,0-4.75,7.67l-7-.4L507.75,236l6.86,1.62a23.31,23.31,0,0,0,2.32,8.69l-5.24,4.52,5.37,6.95,6-3.53.18.15a25.26,25.26,0,0,0,7.81,4.48l-.89,6.75,9.92,1.44,1.11-6.72a25.16,25.16,0,0,0,4.19-.57A24.88,24.88,0,0,0,548,259c.74-.25,1.47-.53,2.18-.85l4.74,5.09,7.16-5.13-3.7-5.82a23.57,23.57,0,0,0,4.74-7.67Zm-32.82,6.27c-8.63-1.25-14.63-9-13.39-17.31s9.22-14,17.85-12.77,14.63,9,13.39,17.3S546,252.55,537.37,251.3Z"/><g class="cls-45"><path class="cls-46" d="M564.61,234.88a16,16,0,0,0-7.27-10.49l7.5-6.14,2.69,3.42-5.24,4.53A23.26,23.26,0,0,1,564.61,234.88Z"/><path class="cls-46" d="M514.6,237.61a16,16,0,0,0,7.27,10.49l-7.5,6.14-2.69-3.42,5.23-4.53A23.44,23.44,0,0,1,514.6,237.61Z"/></g><g class="cls-45"><path class="cls-46" d="M538,212.14c-7.84,1.56-10.84,6.93-10.84,6.93l-6.42-7.28,3.53-2.57,4.73,5.09A25.51,25.51,0,0,1,538,212.14Z"/><path class="cls-46" d="M558.47,260.7l-3.53,2.57-4.74-5.08c-.7.31-1.43.59-2.17.84s-1.52.48-2.3.67a25.11,25.11,0,0,1-4.53.65,18.41,18.41,0,0,0,4.17-1.33A17.4,17.4,0,0,0,548,257.5a13.86,13.86,0,0,0,4-4.07Z"/></g><g class="cls-45"><path class="cls-46" d="M558.42,252.33c4.35-6.46,2.52-12.32,2.52-12.32l9.84.8-.59,4.24-7.05-.4A23.74,23.74,0,0,1,558.42,252.33Z"/><path class="cls-46" d="M520.79,220.16c-4.36,6.46-2.52,12.32-2.52,12.32l-9.85-.8.59-4.24,7.06.4A23.57,23.57,0,0,1,520.79,220.16Z"/></g><g class="cls-45"><path class="cls-46" d="M534.72,266.27l-4.56-.66.89-6.75a25.28,25.28,0,0,1-8-4.61l.21.13a17,17,0,0,0,12.6,2.4Z"/><path class="cls-46" d="M556.15,218.24a17,17,0,0,0-12.8-2.53l.76-9.48,4.4.6-.36,6.8A25.28,25.28,0,0,1,556.15,218.24Z"/></g><path class="cls-47" d="M542.09,219.49c-9.62-1.39-18.53,5-19.9,14.24s5.31,17.89,14.92,19.29,18.53-5,19.91-14.24S551.71,220.89,542.09,219.49Zm-4.72,31.81c-8.63-1.25-14.63-9-13.39-17.31s9.22-14,17.85-12.77,14.63,9,13.39,17.3S546,252.55,537.37,251.3Z"/><path class="cls-44" d="M586.05,268.4l.54-3.68-3-.7a10.18,10.18,0,0,0-1-3.74l2.26-1.95-2.32-3L580,256.86a10.94,10.94,0,0,0-3.44-2l.15-2.92-3.82-.56-.71,2.85a11,11,0,0,0-3.88.93l-2-2.19-3.09,2.21,1.6,2.51a9.94,9.94,0,0,0-2,3.3l-3-.17-.54,3.68,3,.7a10.28,10.28,0,0,0,1,3.75l-2.26,1.95,2.32,3,2.59-1.52.08.06a10.62,10.62,0,0,0,3.37,1.93l-.39,2.91,4.28.62.48-2.89a10.83,10.83,0,0,0,1.8-.25c.39-.09.77-.2,1.14-.32a9.47,9.47,0,0,0,.93-.37l2.05,2.19,3.08-2.2L581,271.54a10.25,10.25,0,0,0,2-3.31Zm-14.15,2.7a6.56,6.56,0,1,1,7.7-5.5A6.65,6.65,0,0,1,571.9,271.1Z"/><g class="cls-45"><path class="cls-46" d="M583.64,264a6.89,6.89,0,0,0-3.13-4.52l3.23-2.65,1.16,1.47-2.26,2A10.18,10.18,0,0,1,583.64,264Z"/><path class="cls-46" d="M562.09,265.2a6.89,6.89,0,0,0,3.13,4.53L562,272.37l-1.16-1.47,2.25-1.95A10,10,0,0,1,562.09,265.2Z"/></g><g class="cls-45"><path class="cls-46" d="M572.17,254.23a7,7,0,0,0-4.67,3l-2.77-3.13,1.52-1.11,2,2.19A11,11,0,0,1,572.17,254.23Z"/><path class="cls-46" d="M581,275.16l-1.52,1.1-2-2.19a9.47,9.47,0,0,1-.93.37,8.73,8.73,0,0,1-1,.28,10.42,10.42,0,0,1-2,.29,8.27,8.27,0,0,0,1.8-.58,7.25,7.25,0,0,0,1.15-.65,5.89,5.89,0,0,0,1.72-1.76Z"/></g><g class="cls-45"><path class="cls-46" d="M581,271.55a6.57,6.57,0,0,0,1.09-5.31l4.24.35-.25,1.82-3-.17A10.14,10.14,0,0,1,581,271.55Z"/><path class="cls-46" d="M564.75,257.68a6.59,6.59,0,0,0-1.08,5.31l-4.25-.34.26-1.83,3,.17A10.28,10.28,0,0,1,564.75,257.68Z"/></g><g class="cls-45"><path class="cls-46" d="M570.76,277.56l-2-.29.39-2.9a11.05,11.05,0,0,1-3.45-2l.09.05a7.32,7.32,0,0,0,5.43,1Z"/><path class="cls-46" d="M580,256.85a7.3,7.3,0,0,0-5.52-1.08l.33-4.09,1.89.26-.15,2.93A10.94,10.94,0,0,1,580,256.85Z"/></g><path class="cls-47" d="M573.93,257.4a7.31,7.31,0,1,0,6.44,8.31A7.47,7.47,0,0,0,573.93,257.4Zm-1.78,12a4.9,4.9,0,0,1-4.26-5.51,5,5,0,1,1,4.26,5.51Z"/><g class="cls-48"><path class="cls-49" d="M677.47,246.82a12,12,0,0,0-8.74-5.82L611,232.63A12.21,12.21,0,0,0,600.66,236a11.21,11.21,0,0,0-2,13.34,12.12,12.12,0,0,0,8.93,6.14l57.73,8.37a12.07,12.07,0,0,0,10.06-3.1,11.17,11.17,0,0,0,2.07-13.91Zm-4.17,11.82a9.11,9.11,0,0,1-7.53,2.32L608,252.59a9.06,9.06,0,0,1-6.68-4.6,8.29,8.29,0,0,1-.93-5.23,8.41,8.41,0,0,1,2.41-4.75,9.11,9.11,0,0,1,7.74-2.51l57.74,8.37a9,9,0,0,1,6.53,4.36,8.28,8.28,0,0,1,1.07,5.47A8.38,8.38,0,0,1,673.3,258.64Z"/><path class="cls-50" d="M675.91,253.7a8.38,8.38,0,0,1-2.61,4.94,9.11,9.11,0,0,1-7.53,2.32L608,252.59a9.06,9.06,0,0,1-6.68-4.6,8.29,8.29,0,0,1-.93-5.23,8.41,8.41,0,0,1,2.41-4.75,9.11,9.11,0,0,1,7.74-2.51l57.74,8.37a9,9,0,0,1,6.53,4.36A8.28,8.28,0,0,1,675.91,253.7Z"/><path class="cls-51" d="M612.45,235.76l-2.54,17.12L608,252.6a9,9,0,0,1-6.69-4.61l1.48-10a9.08,9.08,0,0,1,7.76-2.51Z"/><polygon class="cls-51" points="622.94 237.28 620.4 254.41 611.24 253.08 613.78 235.95 622.94 237.28"/><polygon class="cls-51" points="633.43 238.8 630.89 255.93 621.73 254.6 624.27 237.47 633.43 238.8"/><polygon class="cls-51" points="643.93 240.32 641.39 257.44 632.23 256.12 634.77 238.99 643.93 240.32"/><polygon class="cls-52" points="654.42 241.84 651.88 258.97 642.72 257.64 645.26 240.51 654.42 241.84"/><polygon class="cls-52" points="664.91 243.36 662.37 260.49 653.22 259.16 655.76 242.03 664.91 243.36"/><path class="cls-52" d="M674.91,248.22l-1.55,10.44a9.14,9.14,0,0,1-7.55,2.33l-2.1-.31,2.54-17.13,2.1.31A9,9,0,0,1,674.91,248.22Z"/></g><path class="cls-53" d="M631.53,243.12l-.33,2.21a1.63,1.63,0,0,1,.75-.42,1.73,1.73,0,0,1,.56,0,1.8,1.8,0,0,1,1.46.94,3,3,0,0,1,.18,1.81l-.33,2.22a2.54,2.54,0,0,1-3,2.21,2.4,2.4,0,0,1-1.65-1,2.37,2.37,0,0,1-.41-1.82l0-.25,1.56.11v.36a.91.91,0,0,0,.39.9.72.72,0,0,0,.29.1.88.88,0,0,0,1.13-.85l.38-2.52a1,1,0,0,0-.23-.8.75.75,0,0,0-.44-.2.7.7,0,0,0-.68.23,1.15,1.15,0,0,0-.26.56l0,.28-1.62-.23.84-5.63,4.72.68-.23,1.57Z"/><path class="cls-53" d="M637.83,244l-.33,2.21a1.6,1.6,0,0,1,.76-.41,1.64,1.64,0,0,1,.55,0,1.81,1.81,0,0,1,1.46.95,3,3,0,0,1,.18,1.8l-.33,2.22a2.6,2.6,0,0,1-1,1.77,2.51,2.51,0,0,1-1.92.44,2.35,2.35,0,0,1-1.65-1,2.4,2.4,0,0,1-.41-1.83l0-.24,1.56.1v.36a.92.92,0,0,0,.4.9.63.63,0,0,0,.28.11.88.88,0,0,0,1.13-.85l.38-2.53a1,1,0,0,0-.23-.79.7.7,0,0,0-.44-.21.73.73,0,0,0-.68.23,1.14,1.14,0,0,0-.26.57l0,.28-1.62-.24.84-5.63,4.72.69-.23,1.56Z"/><path class="cls-53" d="M643.11,249.29a.81.81,0,0,1-.36.57.93.93,0,0,1-1.26-.18.84.84,0,0,1-.17-.64l.29-2a.87.87,0,0,1,.35-.57.94.94,0,0,1,.67-.16.93.93,0,0,1,.6.35.84.84,0,0,1,.17.64Zm-1.48,4.35-.63-.1,4.72-6.73.63.09Zm.24-4.54a.3.3,0,0,0,.07.24.28.28,0,0,0,.21.12.32.32,0,0,0,.25-.05.28.28,0,0,0,.12-.21l.29-2a.26.26,0,0,0-.06-.24.28.28,0,0,0-.21-.12.31.31,0,0,0-.25.06.28.28,0,0,0-.12.2Zm3.41,1.23a.87.87,0,0,1,.59.35.83.83,0,0,1,.17.64l-.29,2a.83.83,0,0,1-.35.57.92.92,0,0,1-.67.15.88.88,0,0,1-.59-.34A.78.78,0,0,1,644,253l.29-2a.79.79,0,0,1,.35-.57A.93.93,0,0,1,645.28,250.33Zm.18.89a.32.32,0,0,0-.06-.23.3.3,0,0,0-.22-.12.29.29,0,0,0-.24,0,.3.3,0,0,0-.13.21l-.29,2a.34.34,0,0,0,.06.24.32.32,0,0,0,.22.12.33.33,0,0,0,.37-.26Z"/><path class="cls-53" d="M654.07,227.16l-47.62-6.9a1.87,1.87,0,1,0-.55,3.7l47.63,6.9a1.87,1.87,0,1,0,.54-3.7Z"/><path class="cls-53" d="M675.11,230.21l-14.81-2.15a1.92,1.92,0,0,0-2.2,1.57,1.9,1.9,0,0,0,1.65,2.13l14.81,2.15a1.93,1.93,0,0,0,2.2-1.57A1.9,1.9,0,0,0,675.11,230.21Z"/><path class="cls-53" d="M668.93,271.83l-10.23-1.48-4.58-.66-6.22-.9-4-.58-43.62-6.33a1.88,1.88,0,1,0-.55,3.71l43.63,6.32,4,.58,6.22.9,4.58.66,10.23,1.49a1.88,1.88,0,1,0,.55-3.71Z"/><path class="cls-53" d="M646.74,276.56l-47.62-6.9a1.87,1.87,0,1,0-.55,3.7l47.62,6.9a1.87,1.87,0,1,0,.55-3.7Z"/><polygon class="cls-54" points="123.5 360.87 120.5 360.49 120 362.72 123.36 363.73 123.5 360.87"/><path class="cls-29" d="M118.58,364.49c-.41-2,1.69-1.42,1.69-1.42s.15-2.36.64-2.53c0,0,1,0,0-.51s-1.88-.86-2.21-.62a55.52,55.52,0,0,0-2.16,6c-.08.26,1,.26,1,.26S118.89,366,118.58,364.49Z"/><path class="cls-19" d="M148.64,331.41s15.18,28.65,12.28,32.21c-4.78,5.87-38.95.2-38.95.2s.26-3.75,1-3.75,24.65-2.74,24.65-2.74-20.66-20.66-7.27-25.22C147,329.82,148.64,331.41,148.64,331.41Z"/><path class="cls-55" d="M165.76,316s4.19,19.87,10,16.77,6.5-16,6.5-16A8.38,8.38,0,0,0,180,317c-2.87,1.46-4.27,7.48-4.27,7.48s.29-15.73-4.51-17.23S165.76,316,165.76,316Z"/><path class="cls-22" d="M167.45,321.9c1.27,2.11,6.87-2.22,8.23-3.47s-1.14-13.51-4-13.51C169.9,304.92,162.35,313.4,167.45,321.9Z"/><polygon class="cls-54" points="179.3 360.83 180.5 363.8 183.03 363.8 182.35 359.45 179.3 360.83"/><path class="cls-20" d="M176.11,335c-3.6-2.26-14.51-1.73-14.51-1.73L160.53,331H136.9s-5.6,8.34.89,13.13c10.39,7.66,29.4,1.51,29.4,1.51s7.88,14,12.38,16.47c.74.4,3.46.31,3.33-.49S179.7,337.27,176.11,335Z"/><path class="cls-22" d="M162.46,298.67S152,298.29,145,312.27,133.61,329.75,135.1,331s19.51,5.83,24.67.6,16-21.68,13.84-25.06C171.31,302.93,169.15,297.85,162.46,298.67Z"/><path class="cls-23" d="M158.35,299.32s3.88,6.8,3.1,13.94.23,8.35,2.9,6.28,4.39-7.05,4.39-12-.86-5.62-.86-5.62l.39-1.89s3.17,5.79,1.68,11c-.89,3.1-2.5,11.62-5.43,14.8s-4.64,6.89-9.46,7.92-21.18-.4-21.09-3.07l11-18.36s-.74,9.24,4.42,9.93a8.66,8.66,0,0,0,9.93-7.75c.29-2.35.17-11.82-3.67-14.17Z"/><polygon class="cls-20" points="167.45 321.9 167.76 322.2 167.72 314.75 167.1 322.13 167.45 321.9"/><path class="cls-54" d="M174,295.16s-1.47,7.07-2.94,6.48a13,13,0,0,1-2.75-1.57l-1.13,5a5.72,5.72,0,0,1-5.26-3.71,1.93,1.93,0,0,1,.69-2.51,11.38,11.38,0,0,0,2.7-2.5s2.36-3.89,4.81-3.69A5.61,5.61,0,0,1,174,295.16Z"/><path class="cls-56" d="M168.56,297.2l-1,2-1.57-1s1.39,4,1.84,3.94l.47-2.09Z"/><path class="cls-56" d="M173.64,296.53l-.1.4s-2.27-.92-2.71-2l-1.09.45,1.07-2,2.83,2.62Z"/><path class="cls-29" d="M164.63,296.79s3.44,1.74,4.22,0c0,0-1-1.93,0-2.22s.89.83.89.83,1.13-1.32,1.13-1.18,2.69,3.5,4.61,2.17,2.11-4.86-.69-5.16-2.14-1.76-3.29-2.35C168,287.11,162.91,289.27,164.63,296.79Z"/><path class="cls-29" d="M169.69,297.87v1.91a4.48,4.48,0,0,1,2.23-.77c1,.08.9.25.9.25s-.56,2.88-1.55,2.56a16.86,16.86,0,0,1-3-1.75l.29-2.87h0A.77.77,0,0,1,169.69,297.87Z"/><path class="cls-54" d="M172.41,299.82a3.06,3.06,0,0,0-2.14.27c-.73.57,1.48,1,1.48,1A1.2,1.2,0,0,0,172.41,299.82Z"/><path class="cls-54" d="M158.47,325.67V315.58l-3.64.62c-1.31.23-2.63.41-4,.59-.65.09-1.31.16-2,.26l-.33,0c.72,7.43,2.7,16.92,7.38,17.45,6.34.71,9.47-10.93,10.63-14.19a13.13,13.13,0,0,1-1.28-.81Z"/><path class="cls-57" d="M148.68,318.19s4.48,2.28,7.09,1.87,2.7,5.61,2.7,5.61l.14-9.66Z"/><path class="cls-55" d="M180.83,313.31c-.92.05-1.05,1.49-1.05,1.49a.45.45,0,0,0-.65,0c-.26.28.75,2,1.09,2.58.56.14,1.14.24,1.71.34a12.59,12.59,0,0,1,1-2.72C183.56,313.83,181.75,313.26,180.83,313.31Z"/><path class="cls-22" d="M148.23,318.08s8.17,1.52,10.79-2.4c2-3.06-.42-15.06-3.51-15.13C150.12,300.44,146.34,308.85,148.23,318.08Z"/><path class="cls-29" d="M186.05,364.88a8.79,8.79,0,0,1-3-1.61s-2.3.55-2.61.13c0,0-.25-1-.48.18s-.28,2,.05,2.29,6.8.35,6.8.35S187.56,365.24,186.05,364.88Z"/><path class="cls-20" d="M159.27,311.35a10.22,10.22,0,0,1-.9,4.89c-.14.31.62-.22.62-.22S160.11,314.51,159.27,311.35Z"/><path class="cls-20" d="M148.68,318.19s-.76-5.84-.45-7.25c0,0-1,5.38.09,7.25C148.58,318.62,148.68,318.19,148.68,318.19Z"/><path class="cls-23" d="M164.26,293a6,6,0,0,1,4.08-1.27c3.13.24,7.26,2.11,8,2,1.25-.24.28-6-3-7.1C165.82,284.07,163.12,290.22,164.26,293Z"/><path class="cls-58" d="M168.07,291.65s7-.92,8.72-.09,4.12,2.1-.49,2.1A18.77,18.77,0,0,1,168.07,291.65Z"/><path class="cls-59" d="M170.47,291.94s5.58,1.36,6.58,1-.83-1.23-.83-1.23Z"/><path class="cls-60" d="M168,286.32s3.77,1.81,3.29,4.89l3.56-.16s-.78-3.59-2.82-4.52A5.54,5.54,0,0,0,168,286.32Z"/><path class="cls-61" d="M697.36,185.92,559,155.71c-23.06-5-46.13-10.07-69.24-14.88-5.78-1.19-11.56-2.38-17.36-3.46-1.45-.26-2.9-.53-4.36-.71l-.54,0a.73.73,0,0,0-.48.1c-.32.16-.65.35-1,.53-.64.37-1.26.76-1.89,1.15-2.5,1.56-5,3.17-7.45,4.77l-29.61,19.43c-39.51,25.84-79.34,51.25-120.06,75.15C286.65,249.69,185.71,313.33,180,315h0a71.38,71.38,0,0,0-7.42,1.26c-2.44.58-4.74,1.63-7.15,2.37a10.18,10.18,0,0,0-5.52,4.77,7.16,7.16,0,0,0-1,3.54,3.78,3.78,0,0,0,1.62,3.14,6.53,6.53,0,0,0,1.68.81,3.61,3.61,0,0,1,1.46,1.25,10.62,10.62,0,0,1,1.45,3.52,41.44,41.44,0,0,1,.92,7.52c.15,2.53.16,5.06.11,7.59s-.12,5-.23,7.61l-1-.13a111.52,111.52,0,0,0,.8-15.06,38.13,38.13,0,0,0-.8-7.47,10.21,10.21,0,0,0-1.38-3.46,3.42,3.42,0,0,0-1.36-1.2,6.89,6.89,0,0,1-1.71-.82,4,4,0,0,1-1.72-3.3,7.41,7.41,0,0,1,1-3.65,10.44,10.44,0,0,1,5.64-4.9c2.4-.74,4.7-1.8,7.16-2.4a70.32,70.32,0,0,1,7.45-1.29h0c11.29-3.42,106.39-65.55,126.76-77.48,40.7-23.93,80.62-49.16,120.2-74.89L456.58,143c2.47-1.61,4.94-3.23,7.44-4.8.63-.39,1.25-.78,1.89-1.16.32-.19.64-.37,1-.54a1,1,0,0,1,.58-.12l.57.05c1.47.18,2.92.44,4.37.7,5.81,1.06,11.6,2.23,17.38,3.41,23.13,4.74,46.21,9.7,69.29,14.66q17.31,3.72,34.6,7.56l34.57,7.67,69.12,15.43Z"/><path class="cls-29" d="M515.59,159l1,4a2.11,2.11,0,0,0-1-4Z"/><path class="cls-29" d="M514.93,159.12a2.12,2.12,0,0,0,1,4.06Z"/><path class="cls-29" d="M696.7,185l1,4a2.12,2.12,0,0,0-1-4Z"/><path class="cls-29" d="M696,185.15a2.12,2.12,0,0,0,1,4.06Z"/><path class="cls-23" d="M714.31,262.49a4.83,4.83,0,0,0-2.67-2.27c-2.43-.82-6.15-.71-6.63-1-.87-.58,1.74-4.69,4.57-4.48C716,255.2,716.05,260.77,714.31,262.49Z"/><path class="cls-58" d="M711.86,260.28s-3.76-3.11-6.54-2.86c-1.59.15-3,2.77,0,2.9A35.37,35.37,0,0,0,711.86,260.28Z"/><path class="cls-60" d="M713.64,256.22s-3.43.19-4.06,2.7L707,257.66s1.75-2.5,3.59-2.57A4.52,4.52,0,0,1,713.64,256.22Z"/><path class="cls-62" d="M689.22,290.36s1.89,4.47,4.18,4.82,12.78,9.73,17.35,8.27c3.37-1.07,6.4-12.59,6.4-12.59l-8,9.22Z"/><path class="cls-15" d="M710.1,301.44a5.71,5.71,0,0,1-3.19-.45c-5.12-1.83-13.11-7.66-13.11-7.66s.59-1.62.82-1.47,12.51,4.05,13.17,3.36,2.28-4.72,3.82-6.81a3.32,3.32,0,0,1,1.17-1.14c1.66-.71,4.92,1.64,4.92,1.64S713.78,300.34,710.1,301.44Z"/><path class="cls-15" d="M694.62,291.86a19.47,19.47,0,0,1-.71-2.28c-.29-1.2-.65.91-.65.91s-5-1.52-3.69.23a9.7,9.7,0,0,0,4.23,2.61Z"/><path class="cls-21" d="M710.1,301.44a5.71,5.71,0,0,1-3.19-.45c-.49-1,1.76-1.08,3.55-.95,2.25.16,6.26-8.1,5.28-8s-4-2.9-4-2.9a1.22,1.22,0,0,1-.17-.72,3.32,3.32,0,0,1,1.17-1.14c1.66-.71,4.92,1.64,4.92,1.64S713.78,300.34,710.1,301.44Z"/><path class="cls-22" d="M716,270.93s11.9,5.55,1.45,19.93c0,0-5.33-1.14-6-2.87S716,270.93,716,270.93Z"/><path class="cls-27" d="M711.63,287.85c0,.11,1-5.43,2.12-7.29a12.41,12.41,0,0,1,1.83-2.57A12.59,12.59,0,0,0,711.63,287.85Z"/><path class="cls-27" d="M717.29,290.64l2.15-2.76A5.06,5.06,0,0,1,717.29,290.64Z"/><path class="cls-54" d="M166.89,316.39c-.88-.27-1.5,1-1.5,1a.45.45,0,0,0-.61-.21c-.35.17,0,2.15.13,2.79.49.33,1,.62,1.5.91a12.26,12.26,0,0,1,1.85-2.21C169.28,317.82,167.77,316.66,166.89,316.39Z"/><path class="cls-63" d="M180.38,313.37c-.53.45-1,3,.34,2.75s2.58-1.59,2.43-2.23C182.93,313,180.91,312.91,180.38,313.37Z"/><path class="cls-64" d="M180.33,314.67l-.25,1.19A1.76,1.76,0,0,0,180.33,314.67Z"/><path class="cls-64" d="M181.53,314.55l.05,1.21A1.74,1.74,0,0,0,181.53,314.55Z"/><path class="cls-64" d="M182.17,314.15l.05,1.21A1.74,1.74,0,0,0,182.17,314.15Z"/><path class="cls-64" d="M180.94,314.49s-.19,1.62-.19,1.62A4.28,4.28,0,0,0,180.94,314.49Z"/><polygon class="cls-65" points="97.53 356.43 98.06 360.92 95 361.47 94.06 357.28 97.53 356.43"/><path class="cls-66" d="M98.64,359.2s-.57-.59-.78-.15a4.25,4.25,0,0,0,0,1.66,18.78,18.78,0,0,1-2.68.29c-.27-.11-.66-.9-.8-.42s-.06,4.78.89,5.06,12.11-6.56,10.77-7.09S98.64,359.2,98.64,359.2Z"/><polygon class="cls-65" points="65.12 356.69 64.72 360.89 61.97 360.07 63.07 355.76 65.12 356.69"/><path class="cls-66" d="M61.61,358.34c.39-.3.24.57.39.82a19.09,19.09,0,0,0,2.33,1.36s.56-1.11,1-1.33.53.58.53.58,5.57,2.66,6.33,3.89-10.18.1-10.76-.7S61.21,358.63,61.61,358.34Z"/><path class="cls-65" d="M127.71,260.91s-1.74,4.65-3.79,5.18a4.25,4.25,0,0,1-3.36-.41s-1.59-.83.27-3.8C121.75,260.41,127.71,260.91,127.71,260.91Z"/><path class="cls-65" d="M104.42,261.57l.62,9.81,14.77-8.31.75,2.61s-15.27,14.2-18.66,13.2-4.75-15.73-4.75-15.73Z"/><path class="cls-22" d="M102,250.78s5.82,11.57,2.53,13.37A13.77,13.77,0,0,1,98,265.8Z"/><path class="cls-19" d="M86.24,299.73,74.71,336l-9.29,22.22-3.19-.41,5.53-34.51s2.35-33.65,4.69-37.51S86.24,299.73,86.24,299.73Z"/><path class="cls-20" d="M73.45,285.23s-.14,21.75,5,29.77,15.45,43.09,15.45,43.09l3.92-1.25L94.7,316.52l-3.8-26.31Z"/><path class="cls-22" d="M103.54,254s-4.07,12.54-7.07,22.71-5.35,18.64-7.8,18.79S71,289.9,72.13,284.67s14.3-34.7,21.6-37.58C98.05,245.38,99.47,245.3,103.54,254Z"/><path class="cls-23" d="M90.26,249.63S97,256.08,95,262.77s-4.91,17.85-12.5,14.28-2.38-10.71-2.38-10.71-12.94,18.45-8.92,21.72,16.26,12.49,22.21,4.76,6.35-25.88,7.83-29.9.15-13.69.15-13.69-1,16.17-3.67,20.48,4.47-15.86-6-21.42A1.31,1.31,0,0,0,90.26,249.63Z"/><path class="cls-65" d="M119.61,263.25s2-3.49,2.6-3.53,3.29,2.78,2,2.45-1.86-.54-1.86-.54-1.23,3.32-2.19,3.19C119.75,264.76,119.61,263.25,119.61,263.25Z"/><path class="cls-66" d="M89.29,267.9s2.11-.58,5.21-8C94.5,259.87,92.92,268,89.29,267.9Z"/><path class="cls-67" d="M98.51,244.14s-2-.4-2.2-6,13.14-1.49,9.52-.25c0,0,.22,3.95-2.93,3.6S99,238.87,98.51,244.14Z"/><path class="cls-65" d="M95.39,248.56l2.32-4.72.21-2s-1.08-2.88-.08-2.9c2.09,0,1.78-1,1.78-1a4,4,0,0,0,4.11.39c2.44-1.06,1,7.67-.86,8.25s-1.8-.71-1.8-.71.58,3.89-.37,4.51C99.52,251.16,95.39,248.56,95.39,248.56Z"/><path class="cls-67" d="M100.75,238s-1.22,2.89.27,4.81,4.16,1.43,3.67,2.6-2.43,2.83-3.48,1-.76-2.19-1.37-4.43a8.26,8.26,0,0,1,.4-4.67Z"/><path class="cls-61" d="M516.57,160.63q-11.46-6.27-23.06-12.27c-3.87-2-7.75-4-11.67-5.87s-7.84-3.78-11.93-5.25c-.51-.17-1-.34-1.54-.46a4.34,4.34,0,0,0-.78-.12,1.07,1.07,0,0,0-.36,0l-.39.11c-1,.3-2.07.64-3.11,1l-6.22,2-12.43,4-24.86,8-99.49,31.89L122,263.11l.14-.1h0q-3.5,4.49-7.11,8.85t-7.28,8.71c-2.5,2.84-5,5.65-7.8,8.26a22.76,22.76,0,0,1-4.52,3.5,10.44,10.44,0,0,0-2.17,1.7,20.65,20.65,0,0,0-1.87,2.09,51.18,51.18,0,0,0-5.78,9.65,71.2,71.2,0,0,0-4,10.53,59.19,59.19,0,0,0-2.14,11A38.62,38.62,0,0,0,80,338.37l-.89.17a38.92,38.92,0,0,1-.37-11.3A59.93,59.93,0,0,1,81,316.14a72.46,72.46,0,0,1,4.13-10.56,52.86,52.86,0,0,1,5.92-9.67A22.34,22.34,0,0,1,93,293.8,10.61,10.61,0,0,1,95.22,292a22.85,22.85,0,0,0,4.44-3.46c2.74-2.6,5.27-5.42,7.75-8.27,4.94-5.71,9.65-11.63,14.24-17.63h0l0-.07.08,0,198.88-79.13,99.39-32.22,24.89-7.93,12.45-3.94,6.24-2c1-.32,2.07-.65,3.13-.95l.4-.12a2.3,2.3,0,0,1,.45,0,5.53,5.53,0,0,1,.83.14c.54.13,1.06.3,1.58.48,4.11,1.5,8,3.43,11.94,5.32s7.78,3.91,11.64,5.93q11.58,6,23,12.38Z"/><path class="cls-65" d="M91.44,263.08l-5.65,9.08,7.72,18.08-2.38.82s-11.61-16.2-11.67-20.7,6.92-13.25,6.92-13.25Z"/><path class="cls-65" d="M93.29,290.06s3.9,1.3,4,2.05-4,4.19-4.8,3.49-1.39-4.54-1.39-4.54Z"/><path class="cls-65" d="M93.38,290.19s2.75-1,3.24-.25-.47,1.72-.47,1.72Z"/><path class="cls-22" d="M90.41,250s-11.86,6.45-7.94,11.67c2.75,3.66,5.26,7.92,8.1,5C99.91,257.07,90.41,250,90.41,250Z"/><path class="cls-65" d="M122.29,264.21s-1.54-2.23-.5-2.83,5,.3,5,.3S125.66,265.35,122.29,264.21Z"/><path class="cls-23" d="M96.1,239.31a5.8,5.8,0,0,1,3.71-1.83c3-.24,7.26.92,7.91.68,1.15-.41-.65-5.78-4-6.32C96.25,230.59,94.6,236.88,96.1,239.31Z"/><path class="cls-58" d="M99.54,237.49s6.51-1.93,8.32-1.41,4.25,1.39-.14,2.08A18.19,18.19,0,0,1,99.54,237.49Z"/><path class="cls-59" d="M101.89,237.41s5.52.45,6.43,0-1-1-1-1Z"/><path class="cls-60" d="M98.67,232.41s3.88,1.16,3.88,4.18l3.38-.69s-1.29-3.31-3.38-3.9A5.41,5.41,0,0,0,98.67,232.41Z"/><path class="cls-68" d="M367,242.16l-17.37-24a2.36,2.36,0,0,0-3.94,0l-12.46,24c-.73,1.4.55,3.16,2.3,3.16h29.82A2,2,0,0,0,367,242.16Zm-15.91-1.77a1,1,0,0,1-1.06,1.08h-.25a1.28,1.28,0,0,1-1.27-1.08l0-.25a1,1,0,0,1,1.06-1.08h.24a1.27,1.27,0,0,1,1.28,1.08Zm-.61-5.92.08,2a1,1,0,0,1-1.06,1,1.28,1.28,0,0,1-1.26-1l-.34-2-1.59-7.07a1.59,1.59,0,0,1,1.75-1.8h.45a2,2,0,0,1,2.11,1.8Z"/><path class="cls-44" d="M428.87,233.26h-50.3a3.65,3.65,0,0,0-3.64,3.38v.07a3.66,3.66,0,0,0,3.65,3.93h50.3c1.52,0,2.75-1.65,2.75-3.69S430.39,233.26,428.87,233.26Z"/><path class="cls-44" d="M478.43,233.26H440c-1.52,0-2.75,1.65-2.75,3.69h0c0,2,1.23,3.69,2.75,3.69h38.48c1.52,0,2.75-1.65,2.75-3.69h0C481.18,234.91,480,233.26,478.43,233.26Z"/><path class="cls-44" d="M335.47,258.75h69.28c1.52,0,2.75-1.65,2.75-3.69h0c0-2-1.23-3.69-2.75-3.69H335.47c-1.52,0-2.75,1.65-2.75,3.69h0C332.72,257.1,334,258.75,335.47,258.75Z"/><path class="cls-44" d="M478.43,251.37h-62.6c-1.52,0-2.75,1.65-2.75,3.69h0c0,2,1.23,3.69,2.75,3.69h62.6c1.52,0,2.75-1.65,2.75-3.69h0C481.18,253,480,251.37,478.43,251.37Z"/><path class="cls-44" d="M377.32,269.48H335.47c-1.52,0-2.75,1.65-2.75,3.69h0c0,2,1.23,3.69,2.75,3.69h41.85c1.52,0,2.75-1.65,2.75-3.69h0C380.07,271.13,378.84,269.48,377.32,269.48Z"/><path class="cls-44" d="M428.87,269.48H388.4c-1.52,0-2.75,1.65-2.75,3.69h0c0,2,1.23,3.69,2.75,3.69h40.47c1.52,0,2.75-1.65,2.75-3.69h0C431.62,271.13,430.39,269.48,428.87,269.48Z"/><path class="cls-22" d="M409.27,281.06A28.38,28.38,0,0,0,420.62,283c5-.21,8.78-1.83,9.65-3.43s.77-16.7-.29-28.91c-.64-7.4-1.62-13.77-2.91-15.52-3.44-4.66-11.27-3-11.27-3-3.7.53-11,3.54-12,6.71S399.2,277.2,409.27,281.06Z"/><path class="cls-15" d="M403.25,247.82s-.13,3.76-.49,8.3c-.39,4.85-1,10.57-2.07,13.5-1.94,5.57-6.88,13.17-7.07,13.47h0l-1-.24s4.36-19,5.63-21.75c.83-1.83.78-6.65.64-9.81h0v-.1c-.07-1.63-.16-2.8-.16-2.8Z"/><path class="cls-21" d="M402.76,256.12c-.39,4.85-1,10.57-2.07,13.5-1.94,5.57-6.88,13.17-7.07,13.47a44,44,0,0,1,3.1-6.9c1.76-2.94,3.68-12.21,3.4-15.21s1-7.59-.06-8.21a2.41,2.41,0,0,1-1.17-1.48h0a.62.62,0,0,1,0-.09h0l3.21-.79S402.46,253,402.76,256.12Z"/><path class="cls-15" d="M393.61,283.09s.85,1.12.64,1.93-1.23,3-2.17,1.61-1.61-3.23.54-3.78Z"/><path class="cls-28" d="M391.83,284.19s.83-.06,1-.61C392.87,283.58,393,284.6,391.83,284.19Z"/><path class="cls-28" d="M391.52,284.64s1.57-.51,1.78-.28.71,1.43.14,2c0,0,.19-1.28-.27-1.75Z"/><path class="cls-69" d="M382.63,276.69l22.67,18.47a3.56,3.56,0,1,0,4.49-5.52l-22.67-18.46a3.55,3.55,0,0,0-4.49,5.51ZM407,293.58a1.27,1.27,0,1,1,1.78-.18A1.26,1.26,0,0,1,407,293.58Z"/><path class="cls-70" d="M385.21,277.62l20.67,16.83a2.64,2.64,0,0,0,3.34-4.1l-20.66-16.83a2.65,2.65,0,1,0-3.35,4.1Zm21.83,16a1.27,1.27,0,1,1,1.78-.18A1.26,1.26,0,0,1,407,293.58Z"/><path class="cls-69" d="M373.17,272.23h0a1.64,1.64,0,0,1,1.52-.66l3.25,1.24a1.66,1.66,0,0,0,1.47-.6l1.29-1.59c.67-.82,1.11-2.92.16-3.39l-6-1.72a1.65,1.65,0,0,1-.14-2.88c1.25-.77,3.25-1.37,6.35-.87,6.45,1.05,7,5.19,5,9.71a1.83,1.83,0,0,1-.23.38l-3.47,4.25a1.59,1.59,0,0,1-.73.52l-3,1.05a1.63,1.63,0,0,1-1.3-.09l-3.55-2.92A1.65,1.65,0,0,1,373.17,272.23Z"/><path class="cls-70" d="M385.11,271.28a.82.82,0,0,0,.11-.17c.74-1.7,1.43-4.09.47-5.85-.72-1.33-2.33-2.2-4.77-2.6a8.35,8.35,0,0,0-5.73.74.6.6,0,0,0-.19.16.74.74,0,0,0,.19,1.1l6,1.72.07,0a1.87,1.87,0,0,1,1,1.35,4.62,4.62,0,0,1-.85,3.43l-1.29,1.59a2.55,2.55,0,0,1-2.28.92h-.11l-3.23-1.24a.72.72,0,0,0-.56.27l0,0a.75.75,0,0,0-.12.61.73.73,0,0,0,.38.49l.08,0,3.53,2.91a.77.77,0,0,0,.52,0l3-1.06a.69.69,0,0,0,.33-.23Z"/><path class="cls-69" d="M387.32,275.83a.5.5,0,0,1,.68-.1l17.94,14.62a.48.48,0,0,1,0,.68.48.48,0,0,1-.67.1l-17.95-14.62A.48.48,0,0,1,387.32,275.83Z"/><path class="cls-15" d="M394.25,285c-.21.81-1.23,3-2.17,1.61s-1.63-4.2.54-3.78C393.28,283,394.46,284.21,394.25,285Z"/><path class="cls-71" d="M392.83,283.06s-1,.55-1.06.76S392.79,283.22,392.83,283.06Z"/><path class="cls-71" d="M393.44,283.49s-1.27.7-1.29,1S393.4,283.69,393.44,283.49Z"/><path class="cls-71" d="M393.77,284.13s-1.27.7-1.29,1S393.73,284.33,393.77,284.13Z"/><path class="cls-71" d="M394,284.71s-1,.58-1,.8S394,284.87,394,284.71Z"/><polygon class="cls-15" points="406.65 345.14 407.17 349.42 409.73 349.12 409.92 344.46 406.65 345.14"/><path class="cls-16" d="M406.78,347.5a5.7,5.7,0,0,0,.36,2l2.7-.42s.36-2,0-2C408.43,347,407.21,347,406.78,347.5Z"/><path class="cls-17" d="M409.86,351.81c-.69.57-6.35,4.31-7.05,3.35s-.77-2.77,2.29-5c1.27-.94,1.57-3,1.61-2.35s1.89,1.81,2.88,1c.58-.48.81.43.76,1.38h0A2.58,2.58,0,0,1,409.86,351.81Z"/><path class="cls-19" d="M404.63,274.44s-6.53,9.86,1.92,71.67c.13.93,3.47,1.58,3.68.67,10.68-45.56,12.17-58,10-68.27S404.63,274.44,404.63,274.44Z"/><polygon class="cls-15" points="430.2 345.14 430.72 349.42 433.28 349.12 433.47 344.46 430.2 345.14"/><path class="cls-16" d="M430.33,347.5a5.7,5.7,0,0,0,.36,2l2.7-.42s.36-2,0-2C432,347,430.76,347,430.33,347.5Z"/><path class="cls-17" d="M433.41,351.81c-.69.57-6.35,4.31-7.05,3.35s-.76-2.77,2.29-5c1.27-.94,1.57-3,1.61-2.35s1.89,1.81,2.88,1c.58-.48.81.43.76,1.38h0A2.58,2.58,0,0,1,433.41,351.81Z"/><path class="cls-20" d="M413,275.8s-4.31,11,17,69.65c.31.88,3.71.81,3.73-.13.83-46.78-.35-59.28-4.61-68.84S413,275.8,413,275.8Z"/><path class="cls-72" d="M419.3,283c5.65-.21,9.85-1.83,10.83-3.43s.87-16.7-.32-28.91a12,12,0,0,0-1.69-2.08,44.27,44.27,0,0,1-4.38-4.5c.36.5,4.86,6.83,4,11.23-.91,4.58,3,12.11-.06,16.58C425.58,274.91,419.61,280,419.3,283Z"/><path class="cls-22" d="M405.45,236.57s-8.35,8.88-7.68,18.11c0,0,4.46,1.75,5.43-.22S405.45,236.57,405.45,236.57Z"/><path class="cls-27" d="M402.42,255.11s.4-7,1.53-9.68c0,0-2.05,6.06-1.94,9.7Z"/><path class="cls-15" d="M423.53,244.58s2,1.33,4.72,2.81c3.76,2,8.81,4.35,11.49,3.69l.37-.11a6.93,6.93,0,0,0,2.72-2.8c3.56-5.55,6.9-17.06,6.9-17.06s-1.75-1.12-1.87-.81-9,13.16-10.14,13c-.49-.07-1.89-1.39-3.54-2.74a14.5,14.5,0,0,0-4.4-2.68C429,237.62,423.53,244.58,423.53,244.58Z"/><path class="cls-21" d="M428.25,247.39c3.76,2,8.81,4.35,11.49,3.69-1.6-1.73-4.38-5.28-3.58-6.4a3.51,3.51,0,0,1,1.56-1.4c-.49-.07-1.89-1.39-3.54-2.74-1.13-.26-1.94.87-4.25,3.18C428.35,245.31,428,246.4,428.25,247.39Z"/><path class="cls-15" d="M446.85,227.59a23.1,23.1,0,0,1,1,2.71l1.87.81a0,0,0,0,1,0,0c.12-.18,2.66-2.26,1.76-4.7-.57-1.56-3.35,1.58-3.35,1.58l0,0C447.92,227.77,446.28,226.31,446.85,227.59Z"/><path class="cls-22" d="M423.83,233.25s5.77,1.13,13.23,8.6c0,0-4.52,8.68-6.67,8C417.49,246,423.83,233.25,423.83,233.25Z"/><path class="cls-27" d="M429.7,249.7s-4.83-4.82-6.5-6.53c0,0,5.9,7.68,6.62,7.55Z"/><path class="cls-28" d="M419.16,223s.61.41.45.72l-.34.68a1.81,1.81,0,0,0,.16-.75C419.37,223.38,419,223.12,419.16,223Z"/><path class="cls-27" d="M415.71,236.34s.59,10.86-1.36,17.65.78,28.51.78,28.51h.43s-2.52-19.38-.91-26.09C417.45,244.68,415.71,236.34,415.71,236.34Z"/><path class="cls-15" d="M413.41,232.49l.51-3.18,3.17-.23,1,3.14s-1.18,3.82-2.36,3.86S413.42,232.79,413.41,232.49Z"/><polygon class="cls-26" points="414.67 233.39 415.61 236.32 413.03 233.92 414.67 233.39"/><path class="cls-27" d="M411.3,235.84l3.44-2.47-1.16-1.89-1.9,1.1S412.32,233.77,411.3,235.84Z"/><polygon class="cls-26" points="416.96 233.3 415.87 236.31 418.27 233.87 416.96 233.3"/><path class="cls-27" d="M418.81,235.8l-2-2.48,1-2.18,2,.63S417.68,233.79,418.81,235.8Z"/><path class="cls-21" d="M413.78,230.35s1.29,2,2,1.25a3.65,3.65,0,0,1,1.76-.91l-.4-1.31Z"/><path class="cls-29" d="M410.29,220.9c.22-1.44,10.88-4.28,10.16,2-.4,3.4-1.65,3.65-1.65,3.65l-7.4-.57S409.71,224.71,410.29,220.9Z"/><path class="cls-15" d="M419.12,225.08c-.31,1.15-.28,4.66-3.56,5.6s-4.17-5.37-4.15-5.79a1.93,1.93,0,0,1,.06-.36c.42-1.88,3.17-1.34,5.13-1.35h.2c2.08-.06,2.06-.45,2.06-.45s.63-.62,1.07.36A1.42,1.42,0,0,1,419.12,225.08Z"/><path class="cls-21" d="M418.15,225l-3.59-1.08a3.86,3.86,0,0,0-2.88.6l-.21.05c.19-2.18,4.28-1.47,6.24-1.48A13.09,13.09,0,0,1,418.15,225Z"/><path class="cls-29" d="M417.57,222.48s.56,4.09.74,2.9,1.15-2.51.62-3.09C418.7,222,417.57,222.48,417.57,222.48Z"/><path class="cls-30" d="M410.44,224.23s.91-2.75,5.95-1.76C416.39,222.47,410.81,219.14,410.44,224.23Z"/><path class="cls-29" d="M414.2,224.93a1.5,1.5,0,0,0,1.5,1.38,1.53,1.53,0,0,0-.32-3A1.49,1.49,0,0,0,414.2,224.93Zm.14,0a1.32,1.32,0,0,1,1.05-1.49,1.37,1.37,0,0,1,.29,2.72A1.32,1.32,0,0,1,414.34,224.92Z"/><path class="cls-29" d="M411.68,225.14a1.29,1.29,0,0,0,1.24,1.25A1.26,1.26,0,0,0,414,224.9a1.28,1.28,0,0,0-1.34-1.25A1.3,1.3,0,0,0,411.68,225.14Zm.11,0a1.17,1.17,0,0,1,.86-1.34,1.25,1.25,0,0,1,.26,2.46A1.16,1.16,0,0,1,411.79,225.13Z"/><polygon class="cls-29" points="414.5 223.94 413.44 223.99 413.78 224.37 414.28 224.34 414.5 223.94"/><path class="cls-23" d="M420.36,221.5a5.3,5.3,0,0,0-3.34-.91c-2.55.17-5.93,1.51-6.5,1.42-1-.17-.23-4.31,2.46-5.1C419.09,215.13,421.3,219.54,420.36,221.5Z"/><path class="cls-58" d="M417.25,220.56s-5.69-.65-7.13-.06-3.37,1.51.4,1.51A17,17,0,0,0,417.25,220.56Z"/><path class="cls-59" d="M415.28,220.78s-4.55,1-5.37.73.68-.88.68-.88Z"/><path class="cls-60" d="M417.31,216.74s-3.09,1.31-2.69,3.51l-2.92-.11s.65-2.57,2.31-3.25A5.18,5.18,0,0,1,417.31,216.74Z"/><path class="cls-23" d="M404,276.58c1.64,6.32,5.54,6.77,7.38,6.69l5.68.34a11.11,11.11,0,0,0,3.92.17c3.07-.3,6.78-1.37,8.73-3,3.32-2.72.75-23.17.75-23.17a1.87,1.87,0,0,1-2.76,1c-2.35-1-5.2-4.71-5.55-7.66s-1.52-13.49-1.21-16,1.62-3.13,1.62-3.13l-2.08-.3s-1.06.42-1.22,4c-.1,2.07.26,4-.16,6.16a10.09,10.09,0,0,1-.54,1.89,3.66,3.66,0,0,1-7,0,12.19,12.19,0,0,1-.93-3.88c0-3.9.91-5.54.15-6.49a.24.24,0,0,0-.15-.1c-.32-.14-.93,0-1.25.82s0,12-.87,18-5.74,6.61-6.15,7.74S402,268.82,404,276.58Z"/><path class="cls-24" d="M410.25,242.46c.25,3.56,2.77,6,5.64,6s3.33-6.57,3.33-6.57l-.12-.13a10.09,10.09,0,0,1-.54,1.89,3.66,3.66,0,0,1-7,0,12.19,12.19,0,0,1-.93-3.88c0-3.9.91-5.54.15-6.49a.24.24,0,0,0-.15-.1.84.84,0,0,0,.05.42C411,234.37,410,238.89,410.25,242.46Z"/><path class="cls-25" d="M421,283.78c3.07-.3,6.78-1.37,8.73-3,3.32-2.72.75-23.17.75-23.17a1.87,1.87,0,0,1-2.76,1l0,.06s3.25,2,1.36,8.15C427.5,271.84,419.1,279.89,421,283.78Z"/><polygon class="cls-73" points="420.27 314.63 408.05 308.97 342.7 308.97 353.65 314.81 420.27 314.63"/><polygon class="cls-74" points="407.44 314.93 407.44 310.67 344.4 310.67 353.47 314.63 407.44 314.93"/><rect class="cls-22" x="362.05" y="298.38" width="19.47" height="23.12" transform="translate(797.93 539.48) rotate(168.49)"/><rect class="cls-22" x="402.18" y="291.64" width="6.33" height="38.16" transform="translate(745.46 691.74) rotate(-169.23)"/><rect class="cls-44" x="405.59" y="292.54" width="4.1" height="0.35" transform="translate(753.38 656.47) rotate(-169.23)"/><rect class="cls-44" x="405.48" y="293.12" width="2.72" height="0.21" transform="translate(751.69 657.34) rotate(-169.23)"/><rect class="cls-44" x="405.37" y="293.69" width="2.72" height="0.21" transform="translate(751.37 658.44) rotate(-169.23)"/><rect class="cls-44" x="405.26" y="294.26" width="2.72" height="0.21" transform="matrix(-0.98, -0.19, 0.19, -0.98, 751.05, 659.56)"/><rect class="cls-44" x="405.16" y="294.83" width="2.72" height="0.21" transform="translate(750.74 660.66) rotate(-169.23)"/><rect class="cls-44" x="405.01" y="295.58" width="4.1" height="0.35" transform="translate(751.67 662.38) rotate(-169.23)"/><rect class="cls-44" x="404.9" y="296.15" width="2.72" height="0.21" transform="translate(749.98 663.25) rotate(-169.22)"/><rect class="cls-44" x="404.8" y="296.72" width="2.72" height="0.21" transform="translate(749.66 664.36) rotate(-169.23)"/><rect class="cls-44" x="404.69" y="297.3" width="2.72" height="0.21" transform="translate(749.33 665.47) rotate(-169.23)"/><rect class="cls-44" x="404.58" y="297.87" width="2.72" height="0.21" transform="translate(749.01 666.58) rotate(-169.23)"/><rect class="cls-44" x="404.44" y="298.61" width="4.1" height="0.35" transform="translate(749.95 668.29) rotate(-169.23)"/><rect class="cls-44" x="404.33" y="299.19" width="2.72" height="0.21" transform="translate(748.28 669.14) rotate(-169.23)"/><rect class="cls-44" x="404.22" y="299.76" width="2.72" height="0.21" transform="translate(747.96 670.25) rotate(-169.23)"/><rect class="cls-44" x="404.11" y="300.33" width="2.72" height="0.21" transform="translate(747.64 671.36) rotate(-169.23)"/><rect class="cls-44" x="404" y="300.9" width="2.72" height="0.21" transform="matrix(-0.98, -0.19, 0.19, -0.98, 747.3, 672.48)"/><rect class="cls-44" x="403.86" y="301.65" width="4.1" height="0.35" transform="translate(748.24 674.2) rotate(-169.23)"/><rect class="cls-44" x="403.75" y="302.22" width="2.72" height="0.21" transform="translate(746.55 675.06) rotate(-169.23)"/><rect class="cls-44" x="403.64" y="302.8" width="2.72" height="0.21" transform="translate(746.24 676.16) rotate(-169.23)"/><rect class="cls-44" x="403.53" y="303.37" width="2.72" height="0.21" transform="translate(745.92 677.27) rotate(-169.23)"/><rect class="cls-44" x="403.42" y="303.94" width="2.72" height="0.21" transform="translate(745.6 678.38) rotate(-169.23)"/><rect class="cls-44" x="403.28" y="304.68" width="4.1" height="0.35" transform="translate(746.53 680.11) rotate(-169.23)"/><rect class="cls-44" x="403.17" y="305.26" width="2.72" height="0.21" transform="translate(744.84 680.97) rotate(-169.22)"/><rect class="cls-44" x="403.06" y="305.83" width="2.72" height="0.21" transform="translate(744.52 682.08) rotate(-169.23)"/><rect class="cls-44" x="402.95" y="306.4" width="2.72" height="0.21" transform="translate(744.21 683.18) rotate(-169.23)"/><rect class="cls-44" x="402.85" y="306.97" width="2.72" height="0.21" transform="translate(743.89 684.29) rotate(-169.23)"/><rect class="cls-44" x="402.7" y="307.72" width="4.1" height="0.35" transform="translate(744.82 686.02) rotate(-169.23)"/><rect class="cls-44" x="402.59" y="308.29" width="2.72" height="0.21" transform="translate(743.13 686.88) rotate(-169.22)"/><rect class="cls-44" x="402.48" y="308.87" width="2.72" height="0.21" transform="translate(742.81 687.99) rotate(-169.23)"/><rect class="cls-44" x="402.38" y="309.44" width="2.72" height="0.21" transform="translate(742.49 689.1) rotate(-169.23)"/><rect class="cls-44" x="402.27" y="310.01" width="2.72" height="0.21" transform="translate(742.18 690.2) rotate(-169.23)"/><rect class="cls-44" x="402.12" y="310.75" width="4.1" height="0.35" transform="translate(743.11 691.93) rotate(-169.23)"/><rect class="cls-44" x="402.02" y="311.33" width="2.72" height="0.21" transform="translate(741.43 692.78) rotate(-169.23)"/><rect class="cls-44" x="401.91" y="311.9" width="2.72" height="0.21" transform="translate(741.11 693.89) rotate(-169.23)"/><rect class="cls-44" x="401.8" y="312.47" width="2.72" height="0.21" transform="translate(740.77 695.01) rotate(-169.23)"/><rect class="cls-44" x="401.69" y="313.04" width="2.72" height="0.21" transform="matrix(-0.98, -0.19, 0.19, -0.98, 740.45, 696.12)"/><rect class="cls-44" x="401.55" y="313.79" width="4.1" height="0.35" transform="translate(741.39 697.84) rotate(-169.23)"/><rect class="cls-44" x="401.44" y="314.37" width="2.72" height="0.21" transform="translate(739.72 698.69) rotate(-169.23)"/><rect class="cls-44" x="401.33" y="314.94" width="2.72" height="0.21" transform="translate(739.39 699.8) rotate(-169.23)"/><rect class="cls-44" x="401.22" y="315.51" width="2.72" height="0.21" transform="translate(739.07 700.91) rotate(-169.23)"/><rect class="cls-44" x="401.11" y="316.08" width="2.72" height="0.21" transform="translate(738.74 702.03) rotate(-169.23)"/><rect class="cls-44" x="400.97" y="316.82" width="4.1" height="0.35" transform="translate(739.68 703.74) rotate(-169.23)"/><rect class="cls-44" x="400.86" y="317.4" width="2.72" height="0.21" transform="translate(737.99 704.61) rotate(-169.23)"/><rect class="cls-44" x="400.75" y="317.97" width="2.72" height="0.21" transform="translate(737.68 705.71) rotate(-169.23)"/><rect class="cls-44" x="400.64" y="318.54" width="2.72" height="0.21" transform="translate(737.36 706.82) rotate(-169.23)"/><rect class="cls-44" x="400.54" y="319.11" width="2.72" height="0.21" transform="translate(737.04 707.93) rotate(-169.23)"/><rect class="cls-44" x="400.39" y="319.86" width="4.1" height="0.35" transform="translate(737.97 709.65) rotate(-169.23)"/><rect class="cls-44" x="400.28" y="320.44" width="2.72" height="0.21" transform="translate(736.29 710.51) rotate(-169.23)"/><rect class="cls-44" x="400.17" y="321.01" width="2.72" height="0.21" transform="translate(735.96 711.63) rotate(-169.22)"/><rect class="cls-44" x="400.07" y="321.58" width="2.72" height="0.21" transform="translate(735.63 712.74) rotate(-169.22)"/><rect class="cls-44" x="399.96" y="322.15" width="2.72" height="0.21" transform="translate(735.31 713.85) rotate(-169.22)"/><rect class="cls-44" x="399.81" y="322.89" width="4.1" height="0.35" transform="translate(736.26 715.56) rotate(-169.23)"/><rect class="cls-44" x="399.71" y="323.47" width="2.72" height="0.21" transform="translate(734.58 716.41) rotate(-169.23)"/><rect class="cls-44" x="399.6" y="324.04" width="2.72" height="0.21" transform="translate(734.24 717.54) rotate(-169.22)"/><rect class="cls-44" x="399.49" y="324.61" width="2.72" height="0.21" transform="translate(733.92 718.65) rotate(-169.22)"/><rect class="cls-44" x="399.38" y="325.18" width="2.72" height="0.21" transform="translate(733.6 719.76) rotate(-169.23)"/><rect class="cls-44" x="399.24" y="325.93" width="4.1" height="0.35" transform="translate(734.55 721.47) rotate(-169.23)"/><rect class="cls-44" x="399.13" y="326.51" width="2.72" height="0.21" transform="translate(732.87 722.32) rotate(-169.23)"/><rect class="cls-44" x="399.02" y="327.08" width="2.72" height="0.21" transform="translate(732.55 723.43) rotate(-169.23)"/><rect class="cls-44" x="398.91" y="327.65" width="2.72" height="0.21" transform="translate(732.21 724.56) rotate(-169.22)"/><rect class="cls-44" x="398.8" y="328.22" width="2.72" height="0.21" transform="translate(731.89 725.67) rotate(-169.22)"/><path class="cls-22" d="M384,309.59l14.73,18.88a2.91,2.91,0,0,0,4.59-3.59L388.59,306a2.91,2.91,0,1,0-4.59,3.58Zm16.4,17.94a1,1,0,0,1,.18-1.46,1,1,0,0,1,1.45.18,1,1,0,0,1-1.63,1.28Z"/><path class="cls-44" d="M385.89,310.81,399.31,328a2.17,2.17,0,0,0,3.42-2.67l-13.42-17.2a2.17,2.17,0,1,0-3.42,2.67Zm14.51,16.72a1,1,0,0,1,.18-1.46,1,1,0,0,1,1.45.18,1,1,0,0,1-1.63,1.28Z"/><path class="cls-22" d="M377.26,304.3h0a1.35,1.35,0,0,1,1.33-.25l2.37,1.59a1.37,1.37,0,0,0,1.28-.21l1.32-1c.69-.54,1.42-2.14.75-2.68l-4.48-2.47a1.35,1.35,0,0,1,.41-2.33,7.36,7.36,0,0,1,5.23.47c4.95,2,4.61,5.41,2.21,8.66a1.6,1.6,0,0,1-.26.26l-3.54,2.76a1.41,1.41,0,0,1-.68.28l-2.61.29a1.31,1.31,0,0,1-1-.32l-2.3-3A1.36,1.36,0,0,1,377.26,304.3Z"/><path class="cls-44" d="M387,305.72l.11-.11c.9-1.22,1.89-3,1.44-4.59-.33-1.19-1.45-2.18-3.33-2.94a6.85,6.85,0,0,0-4.71-.46.52.52,0,0,0-.18.1.62.62,0,0,0-.23.48.57.57,0,0,0,.18.43l4.47,2.47,0,0a1.54,1.54,0,0,1,.55,1.26A3.75,3.75,0,0,1,384,305l-1.32,1a2.07,2.07,0,0,1-2,.33l-.09,0-2.35-1.57a.6.6,0,0,0-.5.11l0,0a.58.58,0,0,0-.21.46.56.56,0,0,0,.21.46l.06.05,2.29,3a.6.6,0,0,0,.41.1l2.61-.29a.62.62,0,0,0,.3-.12Z"/><path class="cls-22" d="M387.9,309.76a.39.39,0,0,1,.55,0l11.66,14.94a.39.39,0,0,1-.09.55.4.4,0,0,1-.56,0l-11.65-14.94A.39.39,0,0,1,387.9,309.76Z"/><path class="cls-75" d="M379.89,298s5.66,1.66,6.14,3.52-1.78,3.22-1.78,3.22,1.69-1.43.69-2.85-4.83-2.94-5-3.13S379.89,298,379.89,298Z"/><path class="cls-22" d="M355.38,305.15a1.95,1.95,0,0,0-3.29,1.45l.36,16a1.95,1.95,0,0,0,3.89-.09l-.36-16A2,2,0,0,0,355.38,305.15Zm-1,18.27a.7.7,0,0,1-.71-.68.7.7,0,0,1,1.39,0A.71.71,0,0,1,354.4,323.42Z"/><path class="cls-44" d="M354,306.53a1.44,1.44,0,0,0-1.41,1.48l.33,14.56a1.45,1.45,0,0,0,2.89-.07l-.33-14.56A1.44,1.44,0,0,0,354,306.53Zm.37,16.89a.7.7,0,0,1-.71-.68.7.7,0,0,1,1.39,0A.71.71,0,0,1,354.4,323.42Z"/><path class="cls-22" d="M357.23,300.94h0a.89.89,0,0,0-.8.43l-.55,1.82a.91.91,0,0,1-.75.43l-1.12,0c-.58,0-1.63-.51-1.52-1.07l1.27-3.17a.9.9,0,0,0-1.19-1,5,5,0,0,0-2.51,2.45c-1.71,3.13-.09,4.74,2.52,5.41a.65.65,0,0,0,.24,0l3-.06a1,1,0,0,0,.47-.15l1.47-.95a.86.86,0,0,0,.39-.59l-.06-2.51A.89.89,0,0,0,357.23,300.94Z"/><path class="cls-44" d="M352.81,305.77h-.11A3.88,3.88,0,0,1,350,304a3.37,3.37,0,0,1,.48-2.93,4.62,4.62,0,0,1,2.24-2.23l.14,0a.38.38,0,0,1,.32.15.43.43,0,0,1,.09.3L352,302.43v.05a1,1,0,0,0,.25.87,2.5,2.5,0,0,0,1.76.79l1.12,0a1.39,1.39,0,0,0,1.16-.68l0-.05.55-1.8a.4.4,0,0,1,.31-.16h0a.47.47,0,0,1,.31.15.41.41,0,0,1,.08.33v0l.07,2.5a.48.48,0,0,1-.17.23l-1.47.95a.42.42,0,0,1-.21.06Z"/><path class="cls-22" d="M354,308.25a.25.25,0,0,0-.26.26l.28,12.64a.28.28,0,0,0,.55,0l-.29-12.64A.26.26,0,0,0,354,308.25Z"/><path class="cls-75" d="M353.19,298.77s-2.22,3.25-1.68,4.42,2.27.91,2.27.91-1.47,0-1.55-1.18,1.25-3.56,1.25-3.72S353.19,298.77,353.19,298.77Z"/><path class="cls-44" d="M399.51,299.89c2.67.82,3.31,1.95,3.31,1.95-4.29-.88-5.71,1.23-5.71,1.23l1.44,2.76-.07.5v.05c-2.19,2.71-3.45,1.92-3.45,1.92s-2.7-3.68-3.4-1.5a2.64,2.64,0,0,1-1.6,1.92,1.54,1.54,0,0,1-.63.1,5,5,0,0,1-2.44-3.56l.3-.39c1-1.16,1.66-.74,2.84-.94a1.23,1.23,0,0,0,1.07-1.46C394,299.82,396.83,299.08,399.51,299.89Z"/><path class="cls-76" d="M398.55,305.83,405,316.21l3.61,5.84a10.14,10.14,0,0,1,.89,1.44c.22.62-1.18,1.84-2.16,1.44-.41-.17-1.05-1.42-1.05-1.42l-4-5.4L395,308.3a5.9,5.9,0,0,0,3-1.83A7.25,7.25,0,0,0,398.55,305.83Z"/><path class="cls-44" d="M408.59,322.05a4.87,4.87,0,0,1-2.32,1.46l-4-5.39a7.17,7.17,0,0,0,2.7-1.91Z"/><g class="cls-77"><polygon class="cls-78" points="407.75 324.8 396 308.22 395.23 308.41 407.2 324.74 407.75 324.8"/></g><path class="cls-75" d="M387.29,304.86a6.62,6.62,0,0,0,2.74,3.86,1.54,1.54,0,0,1-.63.1,5,5,0,0,1-2.44-3.56l.3-.39Z"/><g class="cls-79"><path class="cls-80" d="M387.53,305.21a2.47,2.47,0,0,1,1.81-.92c1.38-.19,1.59-.5,1.59-.5a3.67,3.67,0,0,1-1.57.89,3.23,3.23,0,0,0-1.59,1.08Z"/></g><g class="cls-79"><path class="cls-81" d="M391.4,303.15v-.66s3.13-3,6.13-2.69C397.52,299.8,394.5,299.85,391.4,303.15Z"/></g><path class="cls-75" d="M402.82,301.84c-4.29-.88-5.71,1.23-5.71,1.23l1.44,2.76a7.25,7.25,0,0,1-.54.64l-2.21-3.85S400,300.25,402.82,301.84Z"/><path class="cls-44" d="M358.68,296.05c-1.71,2.22-1.57,3.51-1.57,3.51,3-3.2,5.36-2.3,5.36-2.3l.43,3.08.34.36,0,0c3.34.95,3.92-.43,3.92-.43s.06-4.56,1.9-3.18a2.69,2.69,0,0,0,2.42.63,1.59,1.59,0,0,0,.57-.29,5,5,0,0,0-.08-4.31,3.37,3.37,0,0,0-.46-.14c-1.48-.38-1.78.36-2.86.88a1.23,1.23,0,0,1-1.72-.57C363.14,292.79,360.39,293.84,358.68,296.05Z"/><path class="cls-82" d="M362.9,300.34l.77,12.18.44,6.85a10.91,10.91,0,0,0,.1,1.7c.18.62,2,.81,2.6-.09a4.54,4.54,0,0,0,0-1.76l.13-6.71.23-12.2a5.92,5.92,0,0,1-3.49.24C363.45,300.49,363.18,300.43,362.9,300.34Z"/><path class="cls-44" d="M364.11,319.37a4.88,4.88,0,0,0,2.73-.15l.13-6.71a7,7,0,0,1-3.3,0Z"/><g class="cls-77"><polygon class="cls-83" points="366.38 321.13 366.36 300.81 367.1 300.52 366.8 320.76 366.38 321.13"/></g><path class="cls-75" d="M371.52,293a6.6,6.6,0,0,1,0,4.73,1.59,1.59,0,0,0,.57-.29,5,5,0,0,0-.08-4.31,3.37,3.37,0,0,0-.46-.14Z"/><g class="cls-79"><path class="cls-84" d="M371.53,293.45a2.49,2.49,0,0,0-2,.3c-1.22.64-1.58.51-1.58.51a3.74,3.74,0,0,0,1.8-.19,3.32,3.32,0,0,1,1.92,0Z"/></g><g class="cls-79"><path class="cls-85" d="M367.18,294l-.38-.54s-4.3-.65-6.55,1.35C360.25,294.82,362.74,293.12,367.18,294Z"/></g><path class="cls-75" d="M357.11,299.56c3-3.2,5.36-2.3,5.36-2.3l.43,3.08c.28.09.55.15.81.21l-.42-4.42S358.46,296.65,357.11,299.56Z"/><path class="cls-44" d="M358,317.79a10.76,10.76,0,0,0,1.56,3.74l-2,2.37,2.76,2.76,2.37-2a9.68,9.68,0,0,0,.88.52,8.92,8.92,0,0,0,1.09.5,9.76,9.76,0,0,0,1.77.53l.05,3.09h4.37l.05-3.09a10.67,10.67,0,0,0,3.65-1.5l.09-.05,2.37,2,2.76-2.76-2-2.37a11,11,0,0,0,1.56-3.74l3.06-.29v-3.9l-3.06-.28a11,11,0,0,0-1.56-3.75l2-2.36L377,304.44l-2.37,2a10.68,10.68,0,0,0-3.74-1.56l-.28-3.06h-3.91l-.28,3.06a10.68,10.68,0,0,0-3.74,1.56l-2.37-2-2.76,2.77,2,2.36a10.81,10.81,0,0,0-1.56,3.75l-3.06.28v3.9Zm4.66-2.23a6,6,0,1,1,6,6A6,6,0,0,1,362.66,315.56Z"/><g class="cls-45"><path class="cls-46" d="M358,313.32a7.16,7.16,0,0,1,3.81-4.23L359,305.86l-1.38,1.35,2,2.37A10.86,10.86,0,0,0,358,313.32Z"/><path class="cls-46" d="M379.39,317.79a7.16,7.16,0,0,1-3.81,4.23l2.85,3.24,1.38-1.36-2-2.37A10.86,10.86,0,0,0,379.39,317.79Z"/></g><g class="cls-45"><path class="cls-46" d="M370.93,304.86a7.16,7.16,0,0,1,4.23,3.81l3.23-2.85L377,304.44l-2.37,2A10.86,10.86,0,0,0,370.93,304.86Z"/><path class="cls-46" d="M359,325.29l1.36,1.38,2.37-2a9.68,9.68,0,0,0,.88.52c.31.16.63.31.95.45a10.29,10.29,0,0,0,1.91.58,7.62,7.62,0,0,1-2.77-1.72,6.2,6.2,0,0,1-1.46-2.08Z"/></g><g class="cls-45"><path class="cls-46" d="M359.55,321.54a7.17,7.17,0,0,1-.3-5.68l-4.3-.28v1.93l3.07.29A10.78,10.78,0,0,0,359.55,321.54Z"/><path class="cls-46" d="M377.84,309.57a7.19,7.19,0,0,1,.3,5.69l4.3.27V313.6l-3.07-.28A10.75,10.75,0,0,0,377.84,309.57Z"/></g><g class="cls-45"><path class="cls-46" d="M368.88,329.33h2l0-3.08a11,11,0,0,0,3.75-1.55l-.1,0A7.11,7.11,0,0,1,369,325Z"/><path class="cls-46" d="M362.71,306.41a7.17,7.17,0,0,1,5.68-.3l.28-4.3h-1.93l-.28,3.07A10.75,10.75,0,0,0,362.71,306.41Z"/></g><path class="cls-47" d="M362.21,315.56a6.49,6.49,0,1,0,6.49-6.49A6.48,6.48,0,0,0,362.21,315.56Zm.66,0a5.83,5.83,0,1,1,5.83,5.82A5.83,5.83,0,0,1,362.87,315.56Z"/><rect class="cls-23" x="353.47" y="321.02" width="66.81" height="35.05" transform="translate(773.74 677.08) rotate(180)"/><rect class="cls-86" x="404.4" y="321.02" width="15.88" height="35.05" transform="translate(824.67 677.08) rotate(180)"/><rect class="cls-87" x="353.47" y="314.63" width="66.81" height="9.31" transform="translate(773.74 638.57) rotate(180)"/><rect class="cls-88" x="369.9" y="350.95" width="2.74" height="1.64" transform="translate(742.53 703.55) rotate(180)"/><rect class="cls-88" x="365.94" y="350.95" width="2.74" height="1.64" transform="translate(734.62 703.55) rotate(180)"/><rect class="cls-88" x="360.01" y="349.77" width="4.72" height="2.83" transform="translate(724.74 702.36) rotate(180)"/><polygon class="cls-73" points="342.7 308.97 342.7 350.94 353.47 356.06 353.47 314.63 342.7 308.97"/><polygon class="cls-89" points="245.65 310.26 240.34 321.59 240.34 310.26 245.65 310.26"/><polygon class="cls-90" points="255.51 310.26 248.7 324.79 240.34 324.79 240.34 321.59 245.65 310.26 255.51 310.26"/><polygon class="cls-89" points="265.55 310.26 258.74 324.79 248.87 324.79 255.69 310.26 265.55 310.26"/><polygon class="cls-90" points="275.41 310.26 268.6 324.79 258.74 324.79 265.55 310.26 275.41 310.26"/><polygon class="cls-89" points="285.45 310.26 278.64 324.79 268.77 324.79 275.58 310.26 285.45 310.26"/><polygon class="cls-90" points="295.31 310.26 288.5 324.79 278.64 324.79 285.45 310.26 295.31 310.26"/><polygon class="cls-89" points="305.35 310.26 298.54 324.79 288.67 324.79 295.49 310.26 305.35 310.26"/><polygon class="cls-90" points="315.21 310.26 308.4 324.79 298.54 324.79 305.35 310.26 315.21 310.26"/><polygon class="cls-89" points="324.35 310.26 324.35 312.18 318.44 324.79 308.58 324.79 315.38 310.26 324.35 310.26"/><polygon class="cls-90" points="324.35 312.18 324.35 324.79 318.44 324.79 324.35 312.18"/><rect class="cls-91" x="249.32" y="324.79" width="8.45" height="42.88"/><rect class="cls-10" x="249.32" y="327.45" width="6.08" height="40.23"/><rect class="cls-91" x="304.62" y="324.79" width="8.45" height="42.88"/><rect class="cls-10" x="304.62" y="327.45" width="6.08" height="40.23"/><rect class="cls-92" x="240.34" y="310.26" width="84.01" height="3.87"/><path class="cls-10" d="M528.44,352.08H504.53l.15-.46.61-1.89L509.43,337l1.3-4,4.33-13.32.6-1.87a.86.86,0,0,1,1.64,0L522.23,333l.37,1.16.93,2.85Z"/><polygon class="cls-89" points="512.23 332.96 510.35 336.97 509.43 336.97 510.73 332.96 512.23 332.96"/><polygon class="cls-90" points="514.95 332.96 513.07 336.97 510.34 336.97 512.23 332.96 514.95 332.96"/><polygon class="cls-89" points="517.69 332.96 515.81 336.97 513.08 336.97 514.96 332.96 517.69 332.96"/><polygon class="cls-90" points="520.41 332.96 518.53 336.97 515.81 336.97 517.69 332.96 520.41 332.96"/><polygon class="cls-89" points="522.61 334.12 521.27 336.97 518.54 336.97 520.42 332.96 522.23 332.96 522.61 334.12"/><polygon class="cls-90" points="523.53 336.97 521.27 336.97 522.61 334.12 523.53 336.97"/><path class="cls-93" d="M528.44,352.08H505c-.13-.16-.24-.31-.35-.46-1.05-1.39-1.64-2.33-1.68-2.39a12.44,12.44,0,0,0,2.29.5,27.42,27.42,0,0,0,12.27-1.39c9.06-2.95,2.66-17.81-.09-25a9.58,9.58,0,0,0-2.41-3.71l.6-1.87a.86.86,0,0,1,1.64,0L522.23,333l.37,1.16.93,2.85Z"/><path class="cls-10" d="M528.68,349.92h-24.4a2.56,2.56,0,0,0-2.56,2.55v1.77h29.52v-1.77A2.55,2.55,0,0,0,528.68,349.92Z"/><polygon class="cls-94" points="509.43 336.97 523.53 336.97 524.06 338.57 509.43 336.97"/><path class="cls-95" d="M663.41,367.05H639.5l.15-.46.61-1.89,4.14-12.76,1.3-4L650,334.61l.6-1.87a.86.86,0,0,1,1.64,0l4.93,15.19.37,1.16.93,2.85Z"/><polygon class="cls-89" points="647.2 347.93 645.32 351.94 644.4 351.94 645.7 347.93 647.2 347.93"/><polygon class="cls-90" points="649.92 347.93 648.04 351.94 645.32 351.94 647.2 347.93 649.92 347.93"/><polygon class="cls-89" points="652.66 347.93 650.78 351.94 648.05 351.94 649.93 347.93 652.66 347.93"/><polygon class="cls-90" points="655.38 347.93 653.5 351.94 650.78 351.94 652.66 347.93 655.38 347.93"/><polygon class="cls-89" points="657.58 349.09 656.24 351.94 653.51 351.94 655.39 347.93 657.2 347.93 657.58 349.09"/><polygon class="cls-90" points="658.5 351.94 656.24 351.94 657.58 349.09 658.5 351.94"/><path class="cls-93" d="M663.41,367.05H640c-.13-.16-.24-.31-.35-.46-1-1.39-1.64-2.33-1.68-2.39a12.44,12.44,0,0,0,2.29.5,27.42,27.42,0,0,0,12.27-1.39c9.06-2.95,2.66-17.81-.09-25a9.58,9.58,0,0,0-2.41-3.71l.6-1.87a.86.86,0,0,1,1.64,0l4.93,15.19.37,1.16.93,2.85Z"/><path class="cls-96" d="M663.65,364.89h-24.4a2.56,2.56,0,0,0-2.56,2.55v1.78h29.52v-1.78A2.55,2.55,0,0,0,663.65,364.89Z"/><polygon class="cls-94" points="644.4 351.94 658.5 351.94 659.03 353.54 644.4 351.94"/></g></g></g></svg>